<svg width="170" height="120" viewBox="0 0 170 120" fill="none" xmlns="http://www.w3.org/2000/svg">
<path d="M42.3013 76.4545H40.5684V87.9034H40.4263L32.4718 76.4545H30.7672V91H32.5286V79.5795H32.6706L40.5968 91H42.3013V76.4545ZM49.4304 91.2273C52.3849 91.2273 54.3735 88.983 54.3735 85.6023C54.3735 82.1932 52.3849 79.9489 49.4304 79.9489C46.4758 79.9489 44.4872 82.1932 44.4872 85.6023C44.4872 88.983 46.4758 91.2273 49.4304 91.2273ZM49.4304 89.7216C47.186 89.7216 46.1633 87.7898 46.1633 85.6023C46.1633 83.4148 47.186 81.4545 49.4304 81.4545C51.6747 81.4545 52.6974 83.4148 52.6974 85.6023C52.6974 87.7898 51.6747 89.7216 49.4304 89.7216ZM61.5844 76.4545V91H63.2321V79.9489H63.3742L67.9196 91H69.5105L74.056 79.9489H74.198V91H75.8458V76.4545H73.7435L68.8003 88.5284H68.6299L63.6867 76.4545H61.5844ZM78.5501 91H80.2262V80.0909H78.5501V91ZM79.4024 78.2727C80.0558 78.2727 80.5956 77.7614 80.5956 77.1364C80.5956 76.5114 80.0558 76 79.4024 76C78.749 76 78.2092 76.5114 78.2092 77.1364C78.2092 77.7614 78.749 78.2727 79.4024 78.2727ZM84.3723 84.4375C84.3723 82.5341 85.5513 81.4545 87.1564 81.4545C88.7118 81.4545 89.6564 82.4702 89.6564 84.1818V91H91.3326V84.0682C91.3326 81.2841 89.8482 79.9489 87.6394 79.9489C85.9917 79.9489 84.9689 80.6875 84.4576 81.7955H84.3155V80.0909H82.6962V91H84.3723V84.4375ZM93.7954 91H95.4716V80.0909H93.7954V91ZM94.6477 78.2727C95.3011 78.2727 95.8409 77.7614 95.8409 77.1364C95.8409 76.5114 95.3011 76 94.6477 76C93.9943 76 93.4545 76.5114 93.4545 77.1364C93.4545 77.7614 93.9943 78.2727 94.6477 78.2727ZM97.9415 91H99.6177V84.1818C99.6177 82.5838 100.782 81.4545 102.089 81.4545C103.361 81.4545 104.248 82.2855 104.248 83.5284V91H105.953V83.8977C105.953 82.4915 106.834 81.4545 108.368 81.4545C109.561 81.4545 110.584 82.0866 110.584 83.6989V91H112.26V83.6989C112.26 81.1349 110.882 79.9489 108.936 79.9489C107.373 79.9489 106.23 80.6662 105.669 81.7955H105.555C105.015 80.6307 104.064 79.9489 102.629 79.9489C101.209 79.9489 100.157 80.6307 99.7029 81.7955H99.5608V80.0909H97.9415V91ZM121.599 86.5398C121.599 88.5852 120.037 89.5227 118.787 89.5227C117.395 89.5227 116.4 88.5 116.4 86.9091V80.0909H114.724V87.0227C114.724 89.8068 116.202 91.142 118.247 91.142C119.895 91.142 120.974 90.2614 121.486 89.1534H121.599V91H123.275V80.0909H121.599V86.5398ZM125.745 91H127.422V84.1818C127.422 82.5838 128.586 81.4545 129.893 81.4545C131.164 81.4545 132.052 82.2855 132.052 83.5284V91H133.757V83.8977C133.757 82.4915 134.637 81.4545 136.172 81.4545C137.365 81.4545 138.387 82.0866 138.387 83.6989V91H140.064V83.6989C140.064 81.1349 138.686 79.9489 136.74 79.9489C135.177 79.9489 134.034 80.6662 133.473 81.7955H133.359C132.819 80.6307 131.868 79.9489 130.433 79.9489C129.012 79.9489 127.961 80.6307 127.507 81.7955H127.365V80.0909H125.745V91ZM68.3857 107.727C68.3857 103.125 65.6868 100.256 61.9652 100.256C58.2436 100.256 55.5447 103.125 55.5447 107.727C55.5447 112.33 58.2436 115.199 61.9652 115.199C65.6868 115.199 68.3857 112.33 68.3857 107.727ZM66.6811 107.727C66.6811 111.506 64.6072 113.551 61.9652 113.551C59.3232 113.551 57.2493 111.506 57.2493 107.727C57.2493 103.949 59.3232 101.903 61.9652 101.903C64.6072 101.903 66.6811 103.949 66.6811 107.727ZM70.52 115H72.1962V108.097C72.1962 106.619 73.3609 105.54 74.9518 105.54C75.3993 105.54 75.8609 105.625 75.9746 105.653V103.949C75.7828 103.935 75.3425 103.92 75.0939 103.92C73.7871 103.92 72.6507 104.659 72.253 105.739H72.1393V104.091H70.52V115ZM81.1487 115.227C83.251 115.227 83.9612 113.92 84.3305 113.324H84.5294V115H86.1487V100.455H84.4726V105.824H84.3305C83.9612 105.256 83.3078 103.949 81.1771 103.949C78.4215 103.949 76.518 106.136 76.518 109.574C76.518 113.04 78.4215 115.227 81.1487 115.227ZM81.376 113.722C79.2737 113.722 78.1942 111.875 78.1942 109.545C78.1942 107.244 79.2453 105.455 81.376 105.455C83.4215 105.455 84.501 107.102 84.501 109.545C84.501 112.017 83.393 113.722 81.376 113.722ZM93.4251 115.227C95.641 115.227 97.2604 114.119 97.7717 112.472L96.1524 112.017C95.7263 113.153 94.7391 113.722 93.4251 113.722C91.4578 113.722 90.1013 112.45 90.0232 110.114H97.9422V109.403C97.9422 105.341 95.5274 103.949 93.2547 103.949C90.3001 103.949 88.3399 106.278 88.3399 109.631C88.3399 112.983 90.2717 115.227 93.4251 115.227ZM90.0232 108.665C90.1368 106.967 91.3371 105.455 93.2547 105.455C95.0729 105.455 96.2376 106.818 96.2376 108.665H90.0232ZM99.8919 115H101.568V108.097C101.568 106.619 102.733 105.54 104.324 105.54C104.771 105.54 105.233 105.625 105.346 105.653V103.949C105.155 103.935 104.714 103.92 104.466 103.92C103.159 103.92 102.023 104.659 101.625 105.739H101.511V104.091H99.8919V115ZM114.461 106.534C113.935 104.986 112.756 103.949 110.597 103.949C108.296 103.949 106.591 105.256 106.591 107.102C106.591 108.608 107.486 109.616 109.489 110.085L111.307 110.511C112.408 110.767 112.926 111.293 112.926 112.045C112.926 112.983 111.932 113.75 110.37 113.75C108.999 113.75 108.14 113.161 107.841 111.989L106.25 112.386C106.641 114.24 108.168 115.227 110.398 115.227C112.934 115.227 114.659 113.842 114.659 111.96C114.659 110.44 113.708 109.482 111.762 109.006L110.142 108.608C108.85 108.288 108.267 107.855 108.267 107.017C108.267 106.08 109.262 105.398 110.597 105.398C112.06 105.398 112.664 106.207 112.955 106.96L114.461 106.534Z" fill="#262626"/>
<path d="M85.5001 9.5625C82.205 9.5625 79.4528 6.99457 79.1251 3.78516C79.0952 3.48633 79.4239 3.1875 79.7227 3.1875C79.8843 3.18766 80.0445 3.21807 80.1949 3.27715C80.2148 3.28512 82.2967 4.08398 85.5001 4.08398C88.7035 4.08398 90.7893 3.28711 90.8053 3.27715C90.975 3.21809 91.1535 3.18779 91.3332 3.1875H91.3392C91.4137 3.19145 91.4866 3.21005 91.5539 3.24224C91.6211 3.27444 91.6814 3.31959 91.7312 3.37511C91.781 3.43063 91.8193 3.49543 91.844 3.56579C91.8687 3.63616 91.8793 3.7107 91.8751 3.78516C91.5414 6.98859 88.7872 9.5625 85.5001 9.5625Z" fill="url(#paint0_linear)"/>
<path d="M62.6607 8.95492L75.5392 4.4466C75.5943 4.42736 75.653 4.42047 75.7111 4.42643C75.7692 4.43239 75.8253 4.45104 75.8754 4.48108C75.9254 4.51111 75.9683 4.55178 76.0009 4.60021C76.0336 4.64865 76.0551 4.70366 76.0641 4.76136C76.4367 6.99367 77.589 9.02148 79.3161 10.4841C81.0431 11.9468 83.233 12.7495 85.4962 12.7495C87.7593 12.7495 89.9492 11.9468 91.6762 10.4841C93.4033 9.02148 94.5556 6.99367 94.9282 4.76136C94.9369 4.7027 94.9586 4.64674 94.9917 4.59754C95.0249 4.54835 95.0686 4.50717 95.1196 4.477C95.1707 4.44684 95.2278 4.42846 95.2869 4.4232C95.346 4.41794 95.4055 4.42593 95.4611 4.4466L108.34 8.95492C108.7 9.0811 109.003 9.33253 109.194 9.66343C109.385 9.99433 109.45 10.3827 109.378 10.7578L107.722 19.5235C107.658 19.8576 107.489 20.1625 107.24 20.3937C106.99 20.6249 106.673 20.7702 106.335 20.8084L101.467 21.3583C101.268 21.3807 101.085 21.477 100.954 21.6282C100.823 21.7793 100.753 21.9742 100.759 22.1741L101.489 46.17C101.499 46.4792 101.419 46.7846 101.258 47.0489C101.097 47.3132 100.862 47.5248 100.583 47.6581C100.351 47.763 100.099 47.8157 99.8439 47.8125H71.1564C70.9017 47.8157 70.6494 47.763 70.4173 47.6581C70.138 47.5248 69.9036 47.3132 69.7427 47.0489C69.5817 46.7846 69.5012 46.4792 69.5108 46.17L70.241 22.1741C70.247 21.9742 70.1776 21.7793 70.0466 21.6282C69.9156 21.477 69.7325 21.3807 69.5337 21.3583L64.6648 20.8084C64.3269 20.7702 64.01 20.6249 63.7605 20.3937C63.511 20.1625 63.342 19.8576 63.2783 19.5235L61.6218 10.7578C61.5502 10.3827 61.6157 9.99433 61.8064 9.66343C61.9971 9.33253 62.3002 9.0811 62.6607 8.95492Z" fill="url(#paint1_linear)"/>
<defs>
<linearGradient id="paint0_linear" x1="85.4996" y1="3.1875" x2="85.4996" y2="9.5625" gradientUnits="userSpaceOnUse">
<stop stop-color="#3D3B43"/>
<stop offset="1" stop-color="#0C0B0E"/>
</linearGradient>
<linearGradient id="paint1_linear" x1="85.5001" y1="4.42163" x2="85.5001" y2="47.8127" gradientUnits="userSpaceOnUse">
<stop stop-color="#3D3B43"/>
<stop offset="1" stop-color="#0C0B0E"/>
</linearGradient>
</defs>
</svg>
