<svg width="170" height="119" viewBox="0 0 170 119" fill="none" xmlns="http://www.w3.org/2000/svg">
<path d="M55.2507 80C54.7109 77.017 52.3245 75.2557 49.3984 75.2557C45.6768 75.2557 42.9779 78.125 42.9779 82.7273C42.9779 87.3295 45.6768 90.1989 49.3984 90.1989C52.3245 90.1989 54.7109 88.4375 55.2507 85.4545H53.4893C53.0632 87.4716 51.3302 88.5511 49.3984 88.5511C46.7564 88.5511 44.6825 86.5057 44.6825 82.7273C44.6825 78.9489 46.7564 76.9034 49.3984 76.9034C51.3302 76.9034 53.0632 77.983 53.4893 80H55.2507ZM61.7015 90.2273C64.656 90.2273 66.6446 87.983 66.6446 84.6023C66.6446 81.1932 64.656 78.9489 61.7015 78.9489C58.7469 78.9489 56.7583 81.1932 56.7583 84.6023C56.7583 87.983 58.7469 90.2273 61.7015 90.2273ZM61.7015 88.7216C59.4571 88.7216 58.4344 86.7898 58.4344 84.6023C58.4344 82.4148 59.4571 80.4545 61.7015 80.4545C63.9458 80.4545 64.9685 82.4148 64.9685 84.6023C64.9685 86.7898 63.9458 88.7216 61.7015 88.7216ZM68.6032 90H70.2794V83.1818C70.2794 81.5838 71.4441 80.4545 72.751 80.4545C74.0223 80.4545 74.91 81.2855 74.91 82.5284V90H76.6146V82.8977C76.6146 81.4915 77.4953 80.4545 79.0294 80.4545C80.2225 80.4545 81.2453 81.0866 81.2453 82.6989V90H82.9214V82.6989C82.9214 80.1349 81.5436 78.9489 79.5975 78.9489C78.035 78.9489 76.8916 79.6662 76.3305 80.7955H76.2169C75.6771 79.6307 74.7254 78.9489 73.2907 78.9489C71.8703 78.9489 70.8191 79.6307 70.3646 80.7955H70.2225V79.0909H68.6032V90ZM85.3861 94.0909H87.0622V88.3239H87.2042C87.5736 88.9205 88.2838 90.2273 90.3861 90.2273C93.1133 90.2273 95.0167 88.0398 95.0167 84.5739C95.0167 81.1364 93.1133 78.9489 90.3576 78.9489C88.227 78.9489 87.5736 80.2557 87.2042 80.8239H87.0054V79.0909H85.3861V94.0909ZM87.0338 84.5455C87.0338 82.1023 88.1133 80.4545 90.1588 80.4545C92.2895 80.4545 93.3406 82.2443 93.3406 84.5455C93.3406 86.875 92.2611 88.7216 90.1588 88.7216C88.1417 88.7216 87.0338 87.017 87.0338 84.5455ZM98.6497 75.4545H96.9735V90H98.6497V75.4545ZM105.694 90.2273C107.909 90.2273 109.529 89.1193 110.04 87.4716L108.421 87.017C107.995 88.1534 107.007 88.7216 105.694 88.7216C103.726 88.7216 102.37 87.4503 102.292 85.1136H110.211V84.4034C110.211 80.3409 107.796 78.9489 105.523 78.9489C102.569 78.9489 100.608 81.2784 100.608 84.6307C100.608 87.983 102.54 90.2273 105.694 90.2273ZM102.292 83.6648C102.405 81.9673 103.605 80.4545 105.523 80.4545C107.341 80.4545 108.506 81.8182 108.506 83.6648H102.292ZM116.905 79.0909H114.575V76.4773H112.899V79.0909H111.251V80.5114H112.899V87.3295C112.899 89.233 114.433 90.142 115.853 90.142C116.478 90.142 116.876 90.0284 117.103 89.9432L116.763 88.4375C116.62 88.4659 116.393 88.5227 116.024 88.5227C115.285 88.5227 114.575 88.2955 114.575 86.875V80.5114H116.905V79.0909ZM123.283 90.2273C125.498 90.2273 127.118 89.1193 127.629 87.4716L126.01 87.017C125.584 88.1534 124.596 88.7216 123.283 88.7216C121.315 88.7216 119.959 87.4503 119.881 85.1136H127.8V84.4034C127.8 80.3409 125.385 78.9489 123.112 78.9489C120.158 78.9489 118.197 81.2784 118.197 84.6307C118.197 87.983 120.129 90.2273 123.283 90.2273ZM119.881 83.6648C119.994 81.9673 121.195 80.4545 123.112 80.4545C124.93 80.4545 126.095 81.8182 126.095 83.6648H119.881ZM35.8001 114L37.2632 109.881H43.1439L44.607 114H46.4536L41.1126 99.4545H39.2945L33.9536 114H35.8001ZM37.8172 108.318L40.1467 101.756H40.2604L42.5899 108.318H37.8172ZM54.7669 109.54C54.7669 111.585 53.2044 112.523 51.9544 112.523C50.5624 112.523 49.568 111.5 49.568 109.909V103.091H47.8919V110.023C47.8919 112.807 49.3692 114.142 51.4146 114.142C53.0624 114.142 54.1419 113.261 54.6533 112.153H54.7669V114H56.443V103.091H54.7669V109.54ZM63.6573 103.091H61.3278V100.477H59.6516V103.091H58.0039V104.511H59.6516V111.33C59.6516 113.233 61.1857 114.142 62.6062 114.142C63.2312 114.142 63.6289 114.028 63.8562 113.943L63.5153 112.438C63.3732 112.466 63.146 112.523 62.7766 112.523C62.038 112.523 61.3278 112.295 61.3278 110.875V104.511H63.6573V103.091ZM69.8933 114.227C72.8478 114.227 74.8364 111.983 74.8364 108.602C74.8364 105.193 72.8478 102.949 69.8933 102.949C66.9387 102.949 64.9501 105.193 64.9501 108.602C64.9501 111.983 66.9387 114.227 69.8933 114.227ZM69.8933 112.722C67.6489 112.722 66.6262 110.79 66.6262 108.602C66.6262 106.415 67.6489 104.455 69.8933 104.455C72.1376 104.455 73.1603 106.415 73.1603 108.602C73.1603 110.79 72.1376 112.722 69.8933 112.722ZM76.795 114H78.4712V107.182C78.4712 105.584 79.6359 104.455 80.9428 104.455C82.2141 104.455 83.1018 105.286 83.1018 106.528V114H84.8064V106.898C84.8064 105.491 85.6871 104.455 87.2212 104.455C88.4144 104.455 89.4371 105.087 89.4371 106.699V114H91.1132V106.699C91.1132 104.135 89.7354 102.949 87.7894 102.949C86.2269 102.949 85.0834 103.666 84.5223 104.795H84.4087C83.8689 103.631 82.9172 102.949 81.4825 102.949C80.0621 102.949 79.0109 103.631 78.5564 104.795H78.4143V103.091H76.795V114ZM96.7881 114.256C98.6915 114.256 99.6858 113.233 100.027 112.523H100.112V114H101.788V106.812C101.788 103.347 99.146 102.949 97.754 102.949C96.1062 102.949 94.2312 103.517 93.379 105.506L94.9699 106.074C95.3392 105.278 96.2128 104.426 97.8108 104.426C99.352 104.426 100.112 105.243 100.112 106.642V106.699C100.112 107.509 99.2881 107.438 97.2994 107.693C95.2753 107.956 93.0665 108.403 93.0665 110.903C93.0665 113.034 94.7142 114.256 96.7881 114.256ZM97.0437 112.75C95.7085 112.75 94.7426 112.153 94.7426 110.989C94.7426 109.71 95.9074 109.312 97.2142 109.142C97.9244 109.057 99.8278 108.858 100.112 108.517V110.051C100.112 111.415 99.0324 112.75 97.0437 112.75ZM108.992 103.091H106.662V100.477H104.986V103.091H103.338V104.511H104.986V111.33C104.986 113.233 106.52 114.142 107.941 114.142C108.566 114.142 108.963 114.028 109.191 113.943L108.85 112.438C108.708 112.466 108.48 112.523 108.111 112.523C107.372 112.523 106.662 112.295 106.662 110.875V104.511H108.992V103.091ZM110.913 114H112.589V103.091H110.913V114ZM111.765 101.273C112.419 101.273 112.958 100.761 112.958 100.136C112.958 99.5114 112.419 99 111.765 99C111.112 99 110.572 99.5114 110.572 100.136C110.572 100.761 111.112 101.273 111.765 101.273ZM119.491 114.227C122.445 114.227 124.434 111.983 124.434 108.602C124.434 105.193 122.445 102.949 119.491 102.949C116.536 102.949 114.548 105.193 114.548 108.602C114.548 111.983 116.536 114.227 119.491 114.227ZM119.491 112.722C117.247 112.722 116.224 110.79 116.224 108.602C116.224 106.415 117.247 104.455 119.491 104.455C121.735 104.455 122.758 106.415 122.758 108.602C122.758 110.79 121.735 112.722 119.491 112.722ZM128.069 107.438C128.069 105.534 129.248 104.455 130.853 104.455C132.408 104.455 133.353 105.47 133.353 107.182V114H135.029V107.068C135.029 104.284 133.545 102.949 131.336 102.949C129.688 102.949 128.665 103.688 128.154 104.795H128.012V103.091H126.393V114H128.069V107.438Z" fill="#262626"/>
<path d="M60.8484 18.8331H55.7121C54.7704 18.8331 54 18.0626 54 17.121C54 16.1793 54.7704 15.4089 55.7121 15.4089H60.8484C61.79 15.4089 62.5605 16.1793 62.5605 17.121C62.5605 18.0626 61.79 18.8331 60.8484 18.8331ZM63.8553 11.5674C63.4058 11.5674 62.9671 11.3854 62.6461 11.0644L59.0186 7.43692C58.3551 6.77348 58.3551 5.68202 59.0186 5.01858C59.682 4.35515 60.7735 4.35515 61.4369 5.01858L65.0644 8.64609C65.7386 9.30953 65.7386 10.401 65.0644 11.0644C64.7434 11.3854 64.3154 11.5674 63.8553 11.5674ZM71.121 8.56048C70.1793 8.56048 69.4089 7.79004 69.4089 6.84839V1.7121C69.4089 0.770443 70.1793 0 71.121 0C72.0626 0 72.8331 0.770443 72.8331 1.7121V6.84839C72.8331 7.79004 72.0626 8.56048 71.121 8.56048ZM78.3867 11.5674C77.445 11.5674 76.6746 10.7969 76.6746 9.85526C76.6746 9.40583 76.8565 8.96711 77.1775 8.64609L80.805 5.01858C81.4685 4.35515 82.5599 4.35515 83.2234 5.01858C83.8868 5.68202 83.8868 6.77348 83.2234 7.43692L79.5958 11.0644C79.2748 11.3854 78.8361 11.5674 78.3867 11.5674ZM60.2278 29.7263C59.2861 29.7263 58.5157 28.9558 58.5157 28.0142C58.5157 27.5648 58.6976 27.126 59.0186 26.805L62.6461 23.1775C63.3095 22.5141 64.401 22.5141 65.0644 23.1775C65.7279 23.8409 65.7279 24.9324 65.0644 25.5958L61.4369 29.2234C61.1159 29.5444 60.6772 29.7263 60.2278 29.7263ZM75.6366 14.4458C73.6677 12.4448 70.4468 12.4127 68.4458 14.3709C66.4448 16.3291 66.4127 19.5607 68.3709 21.5617L68.4458 21.6366L72.6726 25.8634C73.0043 26.1951 73.55 26.1951 73.8817 25.8634L79.8634 19.8817C80.1951 19.55 80.1951 19.0043 79.8634 18.6726L75.6366 14.4458ZM99.4776 38.2868L83.4909 22.3001C83.1591 21.9683 82.6134 21.9683 82.2817 22.3001L76.3001 28.2817C75.9683 28.6134 75.9683 29.1591 76.3001 29.4909L92.2868 45.4776C94.2557 47.4786 97.4766 47.5107 99.4776 45.5525C101.479 43.5836 101.511 40.3627 99.5525 38.3617C99.5311 38.3403 99.5097 38.3082 99.4776 38.2868Z" fill="url(#paint0_linear)"/>
<defs>
<linearGradient id="paint0_linear" x1="77.5" y1="0" x2="77.5" y2="47" gradientUnits="userSpaceOnUse">
<stop stop-color="#3D3B43"/>
<stop offset="1" stop-color="#0C0B0E"/>
</linearGradient>
</defs>
</svg>
