<svg width="170" height="113" viewBox="0 0 170 113" fill="none" xmlns="http://www.w3.org/2000/svg">
<path d="M32.7539 84H34.5153V77.4943H42.271V84H44.0324V69.4545H42.271V75.9318H34.5153V69.4545H32.7539V84ZM46.7314 84H48.4075V73.0909H46.7314V84ZM47.5836 71.2727C48.237 71.2727 48.7768 70.7614 48.7768 70.1364C48.7768 69.5114 48.237 69 47.5836 69C46.9302 69 46.3904 69.5114 46.3904 70.1364C46.3904 70.7614 46.9302 71.2727 47.5836 71.2727ZM55.2809 88.3182C57.8945 88.3182 59.9968 87.125 59.9968 84.3125V73.0909H58.3774V74.8239H58.207C57.8377 74.2557 57.1559 72.9489 55.0252 72.9489C52.2695 72.9489 50.3661 75.1364 50.3661 78.4886C50.3661 81.8977 52.3547 83.8295 54.9968 83.8295C57.1274 83.8295 57.8093 82.5795 58.1786 81.983H58.3206V84.1989C58.3206 86.017 57.0422 86.8409 55.2809 86.8409C53.2993 86.8409 52.6033 85.7969 52.1559 85.1932L50.8206 86.1307C51.5024 87.2741 52.8448 88.3182 55.2809 88.3182ZM55.224 82.3239C53.1218 82.3239 52.0422 80.733 52.0422 78.4602C52.0422 76.2443 53.0934 74.4545 55.224 74.4545C57.2695 74.4545 58.349 76.1023 58.349 78.4602C58.349 80.875 57.2411 82.3239 55.224 82.3239ZM64.1411 77.4375C64.1411 75.5341 65.3556 74.4545 67.0104 74.4545C68.5871 74.4545 69.5388 75.4489 69.5388 77.1818V84H71.2149V77.0682C71.2149 74.2628 69.7235 72.9489 67.4934 72.9489C65.7746 72.9489 64.7945 73.6662 64.2831 74.7955H64.1411V69.4545H62.4649V84H64.1411V77.4375ZM91.2064 76.7273C91.2064 72.125 88.5075 69.2557 84.7859 69.2557C81.0643 69.2557 78.3654 72.125 78.3654 76.7273C78.3654 81.3295 81.0643 84.1989 84.7859 84.1989C85.7376 84.1989 86.6183 84.0142 87.4066 83.6591L88.6779 85.3636H90.6098L88.7135 82.8423C90.2618 81.571 91.2064 79.4545 91.2064 76.7273ZM84.2177 79.4545L86.3768 82.2812C85.8797 82.4588 85.347 82.5511 84.7859 82.5511C82.1439 82.5511 80.07 80.5057 80.07 76.7273C80.07 72.9489 82.1439 70.9034 84.7859 70.9034C87.4279 70.9034 89.5018 72.9489 89.5018 76.7273C89.5018 78.9219 88.8058 80.527 87.6978 81.4929L86.1495 79.4545H84.2177ZM100.216 79.5398C100.216 81.5852 98.6532 82.5227 97.4032 82.5227C96.0112 82.5227 95.0169 81.5 95.0169 79.9091V73.0909H93.3407V80.0227C93.3407 82.8068 94.818 84.142 96.8635 84.142C98.5112 84.142 99.5907 83.2614 100.102 82.1534H100.216V84H101.892V73.0909H100.216V79.5398ZM107.572 84.2557C109.475 84.2557 110.47 83.233 110.811 82.5227H110.896V84H112.572V76.8125C112.572 73.3466 109.93 72.9489 108.538 72.9489C106.89 72.9489 105.015 73.517 104.163 75.5057L105.754 76.0739C106.123 75.2784 106.997 74.4261 108.595 74.4261C110.136 74.4261 110.896 75.2429 110.896 76.642V76.6989C110.896 77.5085 110.072 77.4375 108.083 77.6932C106.059 77.956 103.85 78.4034 103.85 80.9034C103.85 83.0341 105.498 84.2557 107.572 84.2557ZM107.828 82.75C106.493 82.75 105.527 82.1534 105.527 80.9886C105.527 79.7102 106.691 79.3125 107.998 79.142C108.708 79.0568 110.612 78.858 110.896 78.517V80.0511C110.896 81.4148 109.816 82.75 107.828 82.75ZM116.707 69.4545H115.031V84H116.707V69.4545ZM119.177 84H120.854V73.0909H119.177V84ZM120.03 71.2727C120.683 71.2727 121.223 70.7614 121.223 70.1364C121.223 69.5114 120.683 69 120.03 69C119.376 69 118.837 69.5114 118.837 70.1364C118.837 70.7614 119.376 71.2727 120.03 71.2727ZM128.068 73.0909H125.738V70.4773H124.062V73.0909H122.414V74.5114H124.062V81.3295C124.062 83.233 125.596 84.142 127.017 84.142C127.642 84.142 128.039 84.0284 128.267 83.9432L127.926 82.4375C127.784 82.4659 127.556 82.5227 127.187 82.5227C126.449 82.5227 125.738 82.2955 125.738 80.875V74.5114H128.068V73.0909ZM131.069 88.0909C132.581 88.0909 133.647 87.2884 134.279 85.5909L138.924 73.1193L137.091 73.0909L134.08 81.7841H133.966L130.955 73.0909H129.137L133.171 84.0568L132.858 84.9091C132.248 86.571 131.495 86.7273 130.273 86.4148L129.847 87.892C130.018 87.9773 130.501 88.0909 131.069 88.0909ZM43.4067 108H45.168V101.494H51.4749V99.9318H45.168V95.017H52.1283V93.4545H43.4067V108ZM60.5091 103.54C60.5091 105.585 58.9466 106.523 57.6966 106.523C56.3045 106.523 55.3102 105.5 55.3102 103.909V97.0909H53.6341V104.023C53.6341 106.807 55.1114 108.142 57.1568 108.142C58.8045 108.142 59.8841 107.261 60.3955 106.153H60.5091V108H62.1852V97.0909H60.5091V103.54ZM66.3313 93.4545H64.6552V108H66.3313V93.4545ZM73.6592 97.0909H71.2161V95.983C71.2161 94.9034 71.6706 94.3352 72.7786 94.3352C73.2615 94.3352 73.5456 94.4489 73.7161 94.5057L74.199 93.0568C73.9433 92.9432 73.432 92.7727 72.6081 92.7727C71.0456 92.7727 69.5399 93.7102 69.5399 95.5852V97.0909H67.7786V98.5114H69.5399V108H71.2161V98.5114H73.6592V97.0909ZM75.4083 108H77.0844V97.0909H75.4083V108ZM76.2606 95.2727C76.914 95.2727 77.4538 94.7614 77.4538 94.1364C77.4538 93.5114 76.914 93 76.2606 93C75.6072 93 75.0674 93.5114 75.0674 94.1364C75.0674 94.7614 75.6072 95.2727 76.2606 95.2727ZM81.2305 93.4545H79.5544V108H81.2305V93.4545ZM83.7005 108H85.3766V101.182C85.3766 99.5838 86.5414 98.4545 87.8482 98.4545C89.1195 98.4545 90.0073 99.2855 90.0073 100.528V108H91.7119V100.898C91.7119 99.4915 92.5925 98.4545 94.1266 98.4545C95.3198 98.4545 96.3425 99.0866 96.3425 100.699V108H98.0187V100.699C98.0187 98.1349 96.6408 96.9489 94.6948 96.9489C93.1323 96.9489 91.9889 97.6662 91.4278 98.7955H91.3141C90.7744 97.6307 89.8227 96.9489 88.388 96.9489C86.9675 96.9489 85.9164 97.6307 85.4619 98.7955H85.3198V97.0909H83.7005V108ZM105.057 108.227C107.273 108.227 108.892 107.119 109.404 105.472L107.784 105.017C107.358 106.153 106.371 106.722 105.057 106.722C103.09 106.722 101.733 105.45 101.655 103.114H109.574V102.403C109.574 98.3409 107.159 96.9489 104.887 96.9489C101.932 96.9489 99.9719 99.2784 99.9719 102.631C99.9719 105.983 101.904 108.227 105.057 108.227ZM101.655 101.665C101.769 99.9673 102.969 98.4545 104.887 98.4545C106.705 98.4545 107.87 99.8182 107.87 101.665H101.655ZM113.2 101.438C113.2 99.5341 114.379 98.4545 115.984 98.4545C117.54 98.4545 118.484 99.4702 118.484 101.182V108H120.16V101.068C120.16 98.2841 118.676 96.9489 116.467 96.9489C114.819 96.9489 113.797 97.6875 113.285 98.7955H113.143V97.0909H111.524V108H113.2V101.438ZM127.367 97.0909H125.038V94.4773H123.362V97.0909H121.714V98.5114H123.362V105.33C123.362 107.233 124.896 108.142 126.316 108.142C126.941 108.142 127.339 108.028 127.566 107.943L127.225 106.438C127.083 106.466 126.856 106.523 126.487 106.523C125.748 106.523 125.038 106.295 125.038 104.875V98.5114H127.367V97.0909Z" fill="#262626"/>
<path d="M70.3846 26.1756C71.7885 25.3665 72.8753 24.1037 73.4662 22.5949L77.888 21.985L77.8473 20.5556C77.8406 20.2995 77.8592 20.0433 77.9027 19.7908L78.4113 17.8384L73.617 17.7374C73.157 16.3283 72.2717 15.0964 71.0829 14.211C69.8942 13.3256 68.4603 12.8302 66.9785 12.793C65.4968 12.7557 64.0398 13.1785 62.8081 14.003C61.5764 14.8276 60.6303 16.0135 60.1001 17.3977C59.5699 18.7819 59.4815 20.2963 59.8471 21.7328C60.2127 23.1692 61.0143 24.4572 62.1417 25.4194C63.2692 26.3817 64.667 26.9711 66.1431 27.1065C67.6191 27.2419 69.1009 26.9167 70.3846 26.1756ZM64.8057 16.5127C65.4882 16.1186 66.2723 15.9358 67.0588 15.9873C67.8452 16.0389 68.5987 16.3225 69.224 16.8022C69.8493 17.282 70.3182 17.9365 70.5716 18.6828C70.8249 19.4291 70.8513 20.2338 70.6473 20.9951C70.4433 21.7564 70.0181 22.4401 69.4256 22.9597C68.833 23.4794 68.0997 23.8117 67.3183 23.9145C66.5369 24.0174 65.7425 23.8863 65.0356 23.5377C64.3288 23.1891 63.7412 22.6387 63.3471 21.9562C62.8187 21.0409 62.6755 19.9532 62.949 18.9323C63.2225 17.9115 63.8904 17.0411 64.8057 16.5127Z" fill="url(#paint0_linear)"/>
<path d="M100.13 2.67532L99.0269 1.86492C98.1213 1.18908 96.9582 1.21873 95.3096 1.95772C94.3867 2.37554 92.9227 3.19316 91.2123 4.76157C89.7085 6.14173 82.0792 13.2786 79.901 18.0355C78.8707 20.2857 79.5024 22.1389 80.0151 23.6248C80.4796 24.9832 80.8445 26.0575 80.2055 27.541C79.4663 29.2493 78.6687 30.3126 78.2349 30.8185C76.5562 30.5692 74.8437 30.9254 73.4036 31.8233C71.9636 32.7212 70.89 34.1023 70.3751 35.7193C69.8602 37.3364 69.9374 39.0839 70.5931 40.6492C71.2488 42.2144 72.44 43.4953 73.9537 44.2626C75.4674 45.0299 77.2047 45.2336 78.8548 44.8371C80.5049 44.4406 81.9601 43.4699 82.9599 42.0987C83.9598 40.7274 84.4391 39.0452 84.312 37.3529C84.185 35.6606 83.4599 34.0687 82.2665 32.8621L100.13 2.67532ZM85.0926 21.3651C84.8196 21.5227 84.506 21.5958 84.1914 21.5752C83.8768 21.5546 83.5754 21.4411 83.3253 21.2492C83.0752 21.0573 82.8876 20.7955 82.7863 20.497C82.6849 20.1985 82.6744 19.8766 82.756 19.5721C82.8376 19.2676 83.0076 18.9941 83.2447 18.7862C83.4817 18.5784 83.775 18.4455 84.0876 18.4043C84.4001 18.3632 84.7179 18.4156 85.0006 18.5551C85.2834 18.6945 85.5184 18.9146 85.6761 19.1877C85.8874 19.5538 85.9447 19.9889 85.8353 20.3972C85.7259 20.8055 85.4587 21.1537 85.0926 21.3651ZM79.1515 41.3602C78.4689 41.7543 77.6849 41.9371 76.8984 41.8856C76.112 41.834 75.3584 41.5504 74.7332 41.0706C74.1079 40.5908 73.6389 39.9364 73.3856 39.1901C73.1322 38.4438 73.1059 37.6391 73.3099 36.8778C73.5139 36.1165 73.939 35.4328 74.5316 34.9131C75.1241 34.3935 75.8575 34.0612 76.6389 33.9583C77.4203 33.8555 78.2147 33.9866 78.9215 34.3352C79.6284 34.6838 80.216 35.2341 80.6101 35.9167C81.1385 36.832 81.2817 37.9197 81.0082 38.9405C80.7346 39.9614 80.0668 40.8318 79.1515 41.3602Z" fill="url(#paint1_linear)"/>
<path d="M92.9045 17.3001L88.0796 25.6281L91.115 25.3803L91.514 25.3501C93.5781 25.1994 99.069 24.7993 103.6 22.5282C103.947 22.3543 104.262 22.1855 104.547 22.0206C106.331 20.9874 107.015 19.9813 107.399 19.3L108.448 17.0835L92.9045 17.3001Z" fill="url(#paint2_linear)"/>
<defs>
<linearGradient id="paint0_linear" x1="64.9209" y1="12.765" x2="72.1551" y2="25.2949" gradientUnits="userSpaceOnUse">
<stop stop-color="#3D3B43"/>
<stop offset="1" stop-color="#0C0B0E"/>
</linearGradient>
<linearGradient id="paint1_linear" x1="79.2624" y1="11.156" x2="93.8919" y2="36.4949" gradientUnits="userSpaceOnUse">
<stop stop-color="#3D3B43"/>
<stop offset="1" stop-color="#0C0B0E"/>
</linearGradient>
<linearGradient id="paint2_linear" x1="95.1679" y1="15.9933" x2="100.123" y2="24.5752" gradientUnits="userSpaceOnUse">
<stop stop-color="#3D3B43"/>
<stop offset="1" stop-color="#0C0B0E"/>
</linearGradient>
</defs>
</svg>
