<svg width="170" height="110" viewBox="0 0 170 110" fill="none" xmlns="http://www.w3.org/2000/svg">
<path d="M38.394 71C37.8543 68.017 35.4679 66.2557 32.5418 66.2557C28.8202 66.2557 26.1213 69.125 26.1213 73.7273C26.1213 78.3295 28.8202 81.1989 32.5418 81.1989C35.4679 81.1989 37.8543 79.4375 38.394 76.4545H36.6327C36.2065 78.4716 34.4736 79.5511 32.5418 79.5511C29.8997 79.5511 27.8259 77.5057 27.8259 73.7273C27.8259 69.9489 29.8997 67.9034 32.5418 67.9034C34.4736 67.9034 36.2065 68.983 36.6327 71H38.394ZM44.8448 81.2273C47.7994 81.2273 49.788 78.983 49.788 75.6023C49.788 72.1932 47.7994 69.9489 44.8448 69.9489C41.8903 69.9489 39.9016 72.1932 39.9016 75.6023C39.9016 78.983 41.8903 81.2273 44.8448 81.2273ZM44.8448 79.7216C42.6005 79.7216 41.5778 77.7898 41.5778 75.6023C41.5778 73.4148 42.6005 71.4545 44.8448 71.4545C47.0891 71.4545 48.1119 73.4148 48.1119 75.6023C48.1119 77.7898 47.0891 79.7216 44.8448 79.7216ZM53.4227 74.4375C53.4227 72.5341 54.6017 71.4545 56.2068 71.4545C57.7622 71.4545 58.7068 72.4702 58.7068 74.1818V81H60.383V74.0682C60.383 71.2841 58.8986 69.9489 56.6898 69.9489C55.042 69.9489 54.0193 70.6875 53.508 71.7955H53.3659V70.0909H51.7466V81H53.4227V74.4375ZM64.5219 74.4375C64.5219 72.5341 65.7009 71.4545 67.306 71.4545C68.8614 71.4545 69.806 72.4702 69.806 74.1818V81H71.4822V74.0682C71.4822 71.2841 69.9978 69.9489 67.789 69.9489C66.1413 69.9489 65.1185 70.6875 64.6072 71.7955H64.4651V70.0909H62.8458V81H64.5219V74.4375ZM78.5189 81.2273C80.7348 81.2273 82.3541 80.1193 82.8655 78.4716L81.2462 78.017C80.82 79.1534 79.8328 79.7216 78.5189 79.7216C76.5516 79.7216 75.195 78.4503 75.1169 76.1136H83.0359V75.4034C83.0359 71.3409 80.6212 69.9489 78.3484 69.9489C75.3939 69.9489 73.4337 72.2784 73.4337 75.6307C73.4337 78.983 75.3655 81.2273 78.5189 81.2273ZM75.1169 74.6648C75.2305 72.9673 76.4308 71.4545 78.3484 71.4545C80.1666 71.4545 81.3314 72.8182 81.3314 74.6648H75.1169ZM89.4175 81.2273C91.8322 81.2273 93.4232 79.75 93.7072 77.8182H92.0311C91.7186 79.0114 90.7243 79.7216 89.4175 79.7216C87.4288 79.7216 86.1504 78.0739 86.1504 75.5455C86.1504 73.0739 87.4572 71.4545 89.4175 71.4545C90.8947 71.4545 91.7754 72.3636 92.0311 73.358H93.7072C93.4232 71.3125 91.6902 69.9489 89.3891 69.9489C86.4345 69.9489 84.4743 72.2784 84.4743 75.6023C84.4743 78.8693 86.3493 81.2273 89.4175 81.2273ZM100.302 70.0909H97.9723V67.4773H96.2962V70.0909H94.6484V71.5114H96.2962V78.3295C96.2962 80.233 97.8303 81.142 99.2507 81.142C99.8757 81.142 100.273 81.0284 100.501 80.9432L100.16 79.4375C100.018 79.4659 99.7905 79.5227 99.4212 79.5227C98.6825 79.5227 97.9723 79.2955 97.9723 77.875V71.5114H100.302V70.0909ZM108.328 85.0909C109.84 85.0909 110.906 84.2884 111.538 82.5909L116.183 70.1193L114.35 70.0909L111.339 78.7841H111.225L108.214 70.0909H106.396L110.43 81.0568L110.117 81.9091C109.507 83.571 108.754 83.7273 107.532 83.4148L107.106 84.892C107.277 84.9773 107.76 85.0909 108.328 85.0909ZM121.842 81.2273C124.796 81.2273 126.785 78.983 126.785 75.6023C126.785 72.1932 124.796 69.9489 121.842 69.9489C118.887 69.9489 116.899 72.1932 116.899 75.6023C116.899 78.983 118.887 81.2273 121.842 81.2273ZM121.842 79.7216C119.597 79.7216 118.575 77.7898 118.575 75.6023C118.575 73.4148 119.597 71.4545 121.842 71.4545C124.086 71.4545 125.109 73.4148 125.109 75.6023C125.109 77.7898 124.086 79.7216 121.842 79.7216ZM135.618 76.5398C135.618 78.5852 134.056 79.5227 132.806 79.5227C131.414 79.5227 130.42 78.5 130.42 76.9091V70.0909H128.743V77.0227C128.743 79.8068 130.221 81.142 132.266 81.142C133.914 81.142 134.993 80.2614 135.505 79.1534H135.618V81H137.295V70.0909H135.618V76.5398ZM139.765 81H141.441V74.0966C141.441 72.6193 142.605 71.5398 144.196 71.5398C144.644 71.5398 145.105 71.625 145.219 71.6534V69.9489C145.027 69.9347 144.587 69.9205 144.338 69.9205C143.032 69.9205 141.895 70.6591 141.498 71.7386H141.384V70.0909H139.765V81ZM23.4293 96.5341C22.9038 94.9858 21.7248 93.9489 19.5657 93.9489C17.2646 93.9489 15.56 95.2557 15.56 97.1023C15.56 98.608 16.4549 99.6165 18.4577 100.085L20.2759 100.511C21.3768 100.767 21.8952 101.293 21.8952 102.045C21.8952 102.983 20.9009 103.75 19.3384 103.75C17.9677 103.75 17.1083 103.161 16.81 101.989L15.2191 102.386C15.6097 104.24 17.1367 105.227 19.3668 105.227C21.9023 105.227 23.6282 103.842 23.6282 101.96C23.6282 100.44 22.6765 99.4815 20.7305 99.0057L19.1112 98.608C17.8185 98.2884 17.2362 97.8551 17.2362 97.017C17.2362 96.0795 18.2305 95.3977 19.5657 95.3977C21.0288 95.3977 21.6325 96.2074 21.9237 96.9602L23.4293 96.5341ZM30.2956 94.0909H27.9661V91.4773H26.2899V94.0909H24.6422V95.5114H26.2899V102.33C26.2899 104.233 27.824 105.142 29.2445 105.142C29.8695 105.142 30.2672 105.028 30.4945 104.943L30.1536 103.438C30.0115 103.466 29.7842 103.523 29.4149 103.523C28.6763 103.523 27.9661 103.295 27.9661 101.875V95.5114H30.2956V94.0909ZM36.5315 105.227C39.4861 105.227 41.4747 102.983 41.4747 99.6023C41.4747 96.1932 39.4861 93.9489 36.5315 93.9489C33.577 93.9489 31.5884 96.1932 31.5884 99.6023C31.5884 102.983 33.577 105.227 36.5315 105.227ZM36.5315 103.722C34.2872 103.722 33.2645 101.79 33.2645 99.6023C33.2645 97.4148 34.2872 95.4545 36.5315 95.4545C38.7759 95.4545 39.7986 97.4148 39.7986 99.6023C39.7986 101.79 38.7759 103.722 36.5315 103.722ZM43.4333 105H45.1094V98.0966C45.1094 96.6193 46.2742 95.5398 47.8651 95.5398C48.3126 95.5398 48.7742 95.625 48.8879 95.6534V93.9489C48.6961 93.9347 48.2558 93.9205 48.0072 93.9205C46.7004 93.9205 45.564 94.6591 45.1663 95.7386H45.0526V94.0909H43.4333V105ZM54.5165 105.227C56.7325 105.227 58.3518 104.119 58.8631 102.472L57.2438 102.017C56.8177 103.153 55.8305 103.722 54.5165 103.722C52.5492 103.722 51.1927 102.45 51.1146 100.114H59.0336V99.4034C59.0336 95.3409 56.6188 93.9489 54.3461 93.9489C51.3915 93.9489 49.4313 96.2784 49.4313 99.6307C49.4313 102.983 51.3631 105.227 54.5165 105.227ZM51.1146 98.6648C51.2282 96.9673 52.4285 95.4545 54.3461 95.4545C56.1643 95.4545 57.329 96.8182 57.329 98.6648H51.1146ZM66.0083 105H67.6844V94.0909H66.0083V105ZM66.8606 92.2727C67.514 92.2727 68.0538 91.7614 68.0538 91.1364C68.0538 90.5114 67.514 90 66.8606 90C66.2072 90 65.6674 90.5114 65.6674 91.1364C65.6674 91.7614 66.2072 92.2727 66.8606 92.2727ZM71.8305 98.4375C71.8305 96.5341 73.0095 95.4545 74.6146 95.4545C76.17 95.4545 77.1146 96.4702 77.1146 98.1818V105H78.7908V98.0682C78.7908 95.2841 77.3064 93.9489 75.0976 93.9489C73.4499 93.9489 72.4271 94.6875 71.9158 95.7955H71.7737V94.0909H70.1544V105H71.8305V98.4375ZM86.2786 105H87.9548V98.1818C87.9548 96.5838 89.1195 95.4545 90.4263 95.4545C91.6977 95.4545 92.5854 96.2855 92.5854 97.5284V105H94.29V97.8977C94.29 96.4915 95.1707 95.4545 96.7048 95.4545C97.8979 95.4545 98.9207 96.0866 98.9207 97.6989V105H100.597V97.6989C100.597 95.1349 99.219 93.9489 97.2729 93.9489C95.7104 93.9489 94.567 94.6662 94.0059 95.7955H93.8923C93.3525 94.6307 92.4008 93.9489 90.9661 93.9489C89.5457 93.9489 88.4945 94.6307 88.04 95.7955H87.8979V94.0909H86.2786V105ZM103.061 105H104.738V94.0909H103.061V105ZM103.914 92.2727C104.567 92.2727 105.107 91.7614 105.107 91.1364C105.107 90.5114 104.567 90 103.914 90C103.26 90 102.721 90.5114 102.721 91.1364C102.721 91.7614 103.26 92.2727 103.914 92.2727ZM108.884 98.4375C108.884 96.5341 110.063 95.4545 111.668 95.4545C113.223 95.4545 114.168 96.4702 114.168 98.1818V105H115.844V98.0682C115.844 95.2841 114.36 93.9489 112.151 93.9489C110.503 93.9489 109.48 94.6875 108.969 95.7955H108.827V94.0909H107.208V105H108.884V98.4375ZM125.182 100.54C125.182 102.585 123.619 103.523 122.369 103.523C120.977 103.523 119.983 102.5 119.983 100.909V94.0909H118.307V101.023C118.307 103.807 119.784 105.142 121.829 105.142C123.477 105.142 124.557 104.261 125.068 103.153H125.182V105H126.858V94.0909H125.182V100.54ZM134.072 94.0909H131.743V91.4773H130.066V94.0909H128.419V95.5114H130.066V102.33C130.066 104.233 131.601 105.142 133.021 105.142C133.646 105.142 134.044 105.028 134.271 104.943L133.93 103.438C133.788 103.466 133.561 103.523 133.191 103.523C132.453 103.523 131.743 103.295 131.743 101.875V95.5114H134.072V94.0909ZM140.45 105.227C142.666 105.227 144.285 104.119 144.797 102.472L143.177 102.017C142.751 103.153 141.764 103.722 140.45 103.722C138.483 103.722 137.126 102.45 137.048 100.114H144.967V99.4034C144.967 95.3409 142.552 93.9489 140.28 93.9489C137.325 93.9489 135.365 96.2784 135.365 99.6307C135.365 102.983 137.297 105.227 140.45 105.227ZM137.048 98.6648C137.162 96.9673 138.362 95.4545 140.28 95.4545C142.098 95.4545 143.263 96.8182 143.263 98.6648H137.048ZM154.644 96.5341C154.119 94.9858 152.94 93.9489 150.781 93.9489C148.479 93.9489 146.775 95.2557 146.775 97.1023C146.775 98.608 147.67 99.6165 149.673 100.085L151.491 100.511C152.592 100.767 153.11 101.293 153.11 102.045C153.11 102.983 152.116 103.75 150.553 103.75C149.183 103.75 148.323 103.161 148.025 101.989L146.434 102.386C146.825 104.24 148.352 105.227 150.582 105.227C153.117 105.227 154.843 103.842 154.843 101.96C154.843 100.44 153.891 99.4815 151.945 99.0057L150.326 98.608C149.033 98.2884 148.451 97.8551 148.451 97.017C148.451 96.0795 149.445 95.3977 150.781 95.3977C152.244 95.3977 152.847 96.2074 153.138 96.9602L154.644 96.5341Z" fill="#262626"/>
<path d="M79.7857 41C79.5573 41.0002 79.3315 40.9502 79.1244 40.8537C78.9172 40.7571 78.7337 40.6162 78.5866 40.441C78.4396 40.2657 78.3327 40.0603 78.2733 39.8392C78.214 39.6181 78.2037 39.3866 78.2431 39.1611V39.1517L80.6389 25.9677H71.3635C71.106 25.9677 70.8539 25.8946 70.6361 25.7569C70.4184 25.6193 70.2439 25.4227 70.133 25.1898C70.0221 24.957 69.9792 24.6974 70.0094 24.4412C70.0395 24.185 70.1414 23.9425 70.3033 23.7419L88.9827 0.600667C89.1953 0.330191 89.4905 0.136948 89.8231 0.0504886C90.1557 -0.0359711 90.5073 -0.0108884 90.8243 0.121901C91.1414 0.254691 91.4062 0.487878 91.5785 0.785804C91.7507 1.08373 91.8209 1.43 91.7782 1.77165C91.7782 1.79727 91.7714 1.82204 91.7671 1.84767L89.3628 15.0351H98.6365C98.894 15.0351 99.1461 15.1082 99.3639 15.2459C99.5816 15.3835 99.7561 15.5801 99.867 15.813C99.9779 16.0458 100.021 16.3054 99.9906 16.5616C99.9605 16.8178 99.8586 17.0603 99.6967 17.2609L81.0147 40.4021C80.8679 40.588 80.6812 40.7383 80.4684 40.8418C80.2556 40.9453 80.0223 40.9994 79.7857 41Z" fill="url(#paint0_linear)"/>
<defs>
<linearGradient id="paint0_linear" x1="85" y1="0" x2="85" y2="41" gradientUnits="userSpaceOnUse">
<stop stop-color="#3D3B43"/>
<stop offset="1" stop-color="#0C0B0E"/>
</linearGradient>
</defs>
</svg>
