<svg width="270" height="179" viewBox="0 0 270 179" fill="none" xmlns="http://www.w3.org/2000/svg">
<path d="M136.16 40.4492C136.073 40.3621 135.97 40.2931 135.856 40.2459C135.742 40.1988 135.62 40.1745 135.497 40.1745C135.374 40.1745 135.252 40.1988 135.138 40.2459C135.025 40.2931 134.921 40.3621 134.834 40.4492L129.365 45.9184C129.278 46.0054 129.209 46.1088 129.162 46.2225C129.115 46.3363 129.09 46.4582 129.09 46.5813C129.09 46.7045 129.115 46.8264 129.162 46.9402C129.209 47.0539 129.278 47.1573 129.365 47.2443L134.006 51.885C134.093 51.972 134.196 52.0411 134.31 52.0882C134.424 52.1354 134.545 52.1596 134.669 52.1596C134.792 52.1596 134.914 52.1354 135.027 52.0882C135.141 52.0411 135.245 51.972 135.332 51.885L140.801 46.4158C140.888 46.3288 140.957 46.2254 141.004 46.1116C141.051 45.9979 141.075 45.876 141.075 45.7528C141.075 45.6297 141.051 45.5078 141.004 45.394C140.957 45.2803 140.888 45.1769 140.801 45.0898L136.16 40.4492ZM132.85 46.9127C132.719 47.0439 132.552 47.1332 132.37 47.1694C132.188 47.2057 132 47.1871 131.828 47.1162C131.657 47.0452 131.511 46.9251 131.408 46.7709C131.305 46.6167 131.25 46.4354 131.25 46.25C131.25 46.0645 131.305 45.8833 131.408 45.7291C131.511 45.5749 131.657 45.4547 131.828 45.3838C132 45.3129 132.188 45.2943 132.37 45.3305C132.552 45.3668 132.719 45.4561 132.85 45.5873C133.026 45.7631 133.125 46.0015 133.125 46.25C133.125 46.4985 133.026 46.7369 132.85 46.9127ZM135.663 49.7252C135.532 49.8564 135.365 49.9457 135.183 49.9819C135.001 50.0182 134.812 49.9996 134.641 49.9287C134.47 49.8577 134.323 49.7376 134.22 49.5834C134.117 49.4292 134.062 49.2479 134.062 49.0625C134.062 48.877 134.117 48.6958 134.22 48.5416C134.323 48.3874 134.47 48.2672 134.641 48.1963C134.812 48.1254 135.001 48.1068 135.183 48.143C135.365 48.1793 135.532 48.2686 135.663 48.3998C135.838 48.5756 135.937 48.814 135.937 49.0625C135.937 49.311 135.838 49.5494 135.663 49.7252ZM135.663 44.1002C135.532 44.2314 135.365 44.3207 135.183 44.3569C135.001 44.3932 134.812 44.3746 134.641 44.3037C134.47 44.2327 134.323 44.1126 134.22 43.9584C134.117 43.8042 134.062 43.6229 134.062 43.4375C134.062 43.252 134.117 43.0708 134.22 42.9166C134.323 42.7624 134.47 42.6422 134.641 42.5713C134.812 42.5004 135.001 42.4818 135.183 42.518C135.365 42.5543 135.532 42.6436 135.663 42.7748C135.838 42.9506 135.937 43.189 135.937 43.4375C135.937 43.686 135.838 43.9244 135.663 44.1002ZM138.475 46.9127C138.344 47.0439 138.177 47.1332 137.995 47.1694C137.813 47.2057 137.625 47.1871 137.453 47.1162C137.282 47.0452 137.136 46.9251 137.033 46.7709C136.93 46.6167 136.875 46.4354 136.875 46.25C136.875 46.0645 136.93 45.8833 137.033 45.7291C137.136 45.5749 137.282 45.4547 137.453 45.3838C137.625 45.3129 137.813 45.2943 137.995 45.3305C138.177 45.3668 138.344 45.4561 138.475 45.5873C138.651 45.7631 138.75 46.0015 138.75 46.25C138.75 46.4985 138.651 46.7369 138.475 46.9127ZM147.282 33.9682C146.136 32.8277 144.585 32.1875 142.968 32.1875C141.351 32.1875 139.8 32.8277 138.654 33.9682L134.566 38.0633C134.529 38.101 134.505 38.1505 134.5 38.2034C134.494 38.2564 134.506 38.3097 134.535 38.3546C134.564 38.3994 134.607 38.4332 134.657 38.4504C134.708 38.4675 134.762 38.467 134.812 38.4488C135.031 38.3611 135.262 38.3108 135.497 38.3C135.867 38.299 136.233 38.3714 136.574 38.5128C136.916 38.6542 137.226 38.8619 137.486 39.1238L142.126 43.7639C142.388 44.0244 142.596 44.3344 142.737 44.6757C142.879 45.0171 142.951 45.383 142.95 45.7525C142.939 45.9876 142.889 46.2192 142.801 46.4375C142.783 46.4876 142.782 46.5423 142.8 46.5927C142.817 46.6431 142.851 46.6862 142.895 46.7149C142.94 46.7435 142.994 46.756 143.047 46.7503C143.099 46.7447 143.149 46.7211 143.187 46.6836L147.282 42.5961C148.422 41.45 149.062 39.8989 149.062 38.2821C149.062 36.6653 148.422 35.1142 147.282 33.9682Z" fill="white"/>
<path d="M134.903 53.9158C134.534 53.9165 134.168 53.8445 133.827 53.7037C133.485 53.5629 133.175 53.3563 132.914 53.0955L128.274 48.4531C128.046 48.2255 127.859 47.9603 127.721 47.6691C127.452 47.1008 127.64 46.2043 127.867 45.507C127.882 45.4572 127.88 45.4037 127.861 45.3551C127.842 45.3065 127.808 45.2656 127.763 45.2387C127.719 45.2118 127.666 45.2006 127.615 45.2067C127.563 45.2129 127.515 45.2361 127.478 45.2726L122.952 49.7867C121.808 50.9308 121.166 52.4826 121.166 54.1007C121.166 55.7187 121.808 57.2705 122.952 58.4146C124.097 59.5588 125.648 60.2015 127.266 60.2015C128.884 60.2015 130.436 59.5588 131.58 58.4146L135.843 54.1443C135.881 54.1065 135.904 54.057 135.91 54.0039C135.916 53.9509 135.903 53.8974 135.875 53.8525C135.846 53.8075 135.803 53.7737 135.752 53.7567C135.701 53.7397 135.646 53.7404 135.596 53.7588C135.351 53.8514 135.104 53.9158 134.903 53.9158Z" fill="white"/>
<path d="M88.6966 113.609C96.4154 113.625 101.025 107.531 101.025 97.0312C101.025 86.5937 96.3841 80.5625 88.6966 80.5625C81.0091 80.5625 76.3841 86.5781 76.3685 97.0312C76.3685 107.516 80.9779 113.609 88.6966 113.609ZM88.6966 108.719C84.7123 108.719 82.2123 104.719 82.2279 97.0312C82.2435 89.4062 84.7279 85.3906 88.6966 85.3906C92.681 85.3906 95.1654 89.4062 95.181 97.0312C95.181 104.719 92.6966 108.719 88.6966 108.719ZM107.197 113.344C109.041 113.344 110.619 111.812 110.634 109.906C110.619 108.031 109.041 106.5 107.197 106.5C105.291 106.5 103.744 108.031 103.759 109.906C103.744 111.812 105.291 113.344 107.197 113.344ZM125.674 113.609C133.393 113.625 138.002 107.531 138.002 97.0312C138.002 86.5937 133.361 80.5625 125.674 80.5625C117.986 80.5625 113.361 86.5781 113.346 97.0312C113.346 107.516 117.955 113.609 125.674 113.609ZM125.674 108.719C121.689 108.719 119.189 104.719 119.205 97.0312C119.221 89.4062 121.705 85.3906 125.674 85.3906C129.658 85.3906 132.143 89.4062 132.158 97.0312C132.158 104.719 129.674 108.719 125.674 108.719ZM154.889 81H149.373L141.42 86.1094V91.4219L148.905 86.6406H149.092V113H154.889V81ZM178.803 107C178.819 110.719 181.178 113.891 185.569 113.891C189.944 113.891 192.35 110.719 192.335 107V105.312C192.35 101.562 190.006 98.4219 185.569 98.4219C181.241 98.4219 178.819 101.594 178.803 105.312V107ZM162.538 88.6875C162.553 92.4062 164.913 95.5469 169.319 95.5469C173.678 95.5469 176.085 92.4375 176.069 88.6875V87C176.085 83.25 173.741 80.1094 169.319 80.1094C165.006 80.1094 162.553 83.25 162.538 87V88.6875ZM163.944 113H167.866L189.866 81H185.944L163.944 113ZM182.881 105.312C182.897 103.656 183.6 101.984 185.569 101.984C187.631 101.984 188.241 103.656 188.225 105.312V107C188.241 108.656 187.569 110.297 185.569 110.297C183.569 110.297 182.897 108.641 182.881 107V105.312ZM166.647 87C166.663 85.3594 167.335 83.6719 169.319 83.6719C171.381 83.6719 171.975 85.3438 171.96 87V88.6875C171.975 90.3437 171.319 91.9844 169.319 91.9844C167.319 91.9844 166.663 90.3437 166.647 88.6875V87Z" fill="white"/>
<path d="M86.4055 149H88.5135V144.739H90.6612L92.9453 149H95.2976L92.7805 144.386C94.1499 143.835 94.8714 142.665 94.8714 141.085C94.8714 138.864 93.4396 137.364 90.7692 137.364H86.4055V149ZM88.5135 142.989V139.125H90.4453C92.0192 139.125 92.7237 139.847 92.7237 141.085C92.7237 142.324 92.0192 142.989 90.4567 142.989H88.5135ZM100.46 149.17C102.494 149.17 103.891 148.176 104.255 146.659L102.335 146.443C102.056 147.182 101.374 147.568 100.488 147.568C99.1584 147.568 98.2777 146.693 98.2607 145.199H104.34V144.568C104.34 141.506 102.499 140.159 100.352 140.159C97.8516 140.159 96.2209 141.994 96.2209 144.688C96.2209 147.426 97.8288 149.17 100.46 149.17ZM98.2663 143.812C98.3288 142.699 99.1527 141.761 100.38 141.761C101.562 141.761 102.357 142.625 102.369 143.812H98.2663ZM110.438 140.273H108.717V138.182H106.66V140.273H105.421V141.864H106.66V146.716C106.648 148.358 107.842 149.165 109.387 149.119C109.972 149.102 110.376 148.989 110.597 148.915L110.251 147.307C110.137 147.335 109.904 147.386 109.648 147.386C109.131 147.386 108.717 147.205 108.717 146.375V141.864H110.438V140.273ZM117.721 145.33C117.721 146.659 116.772 147.318 115.863 147.318C114.874 147.318 114.215 146.619 114.215 145.511V140.273H112.158V145.83C112.158 147.926 113.352 149.114 115.067 149.114C116.374 149.114 117.295 148.426 117.692 147.449H117.783V149H119.778V140.273H117.721V145.33ZM121.893 149H123.95V143.869C123.95 142.761 124.785 141.977 125.915 141.977C126.262 141.977 126.694 142.04 126.87 142.097V140.205C126.683 140.17 126.359 140.148 126.131 140.148C125.131 140.148 124.296 140.716 123.978 141.727H123.887V140.273H121.893V149ZM130.293 143.886C130.293 142.625 131.055 141.898 132.14 141.898C133.202 141.898 133.839 142.597 133.839 143.761V149H135.896V143.443C135.901 141.352 134.708 140.159 132.907 140.159C131.6 140.159 130.702 140.784 130.305 141.756H130.202V140.273H128.237V149H130.293V143.886ZM144.884 142.58C144.6 141.102 143.418 140.159 141.373 140.159C139.271 140.159 137.839 141.193 137.844 142.807C137.839 144.08 138.623 144.92 140.299 145.267L141.788 145.58C142.589 145.756 142.964 146.08 142.964 146.574C142.964 147.17 142.316 147.619 141.339 147.619C140.396 147.619 139.782 147.21 139.606 146.426L137.6 146.619C137.856 148.222 139.202 149.17 141.344 149.17C143.526 149.17 145.066 148.04 145.072 146.386C145.066 145.142 144.265 144.381 142.617 144.023L141.129 143.705C140.242 143.506 139.89 143.199 139.896 142.693C139.89 142.102 140.543 141.693 141.401 141.693C142.35 141.693 142.85 142.21 143.009 142.784L144.884 142.58ZM150.827 149H152.935V144.739H155.083L157.367 149H159.719L157.202 144.386C158.572 143.835 159.293 142.665 159.293 141.085C159.293 138.864 157.862 137.364 155.191 137.364H150.827V149ZM152.935 142.989V139.125H154.867C156.441 139.125 157.146 139.847 157.146 141.085C157.146 142.324 156.441 142.989 154.879 142.989H152.935ZM163.654 149.176C165.023 149.176 165.842 148.534 166.217 147.801H166.285V149H168.262V143.159C168.262 140.852 166.381 140.159 164.717 140.159C162.881 140.159 161.472 140.977 161.018 142.568L162.938 142.841C163.143 142.244 163.722 141.733 164.728 141.733C165.683 141.733 166.205 142.222 166.205 143.08V143.114C166.205 143.705 165.586 143.733 164.046 143.898C162.353 144.08 160.734 144.585 160.734 146.551C160.734 148.267 161.989 149.176 163.654 149.176ZM164.188 147.665C163.33 147.665 162.717 147.273 162.717 146.517C162.717 145.727 163.404 145.398 164.325 145.267C164.864 145.193 165.944 145.057 166.211 144.841V145.869C166.211 146.841 165.427 147.665 164.188 147.665ZM174.688 140.273H172.967V138.182H170.91V140.273H169.671V141.864H170.91V146.716C170.898 148.358 172.092 149.165 173.637 149.119C174.222 149.102 174.626 148.989 174.847 148.915L174.501 147.307C174.387 147.335 174.154 147.386 173.898 147.386C173.381 147.386 172.967 147.205 172.967 146.375V141.864H174.688V140.273ZM180.178 149.17C182.212 149.17 183.61 148.176 183.974 146.659L182.053 146.443C181.775 147.182 181.093 147.568 180.207 147.568C178.877 147.568 177.996 146.693 177.979 145.199H184.059V144.568C184.059 141.506 182.218 140.159 180.07 140.159C177.57 140.159 175.94 141.994 175.94 144.688C175.94 147.426 177.548 149.17 180.178 149.17ZM177.985 143.812C178.048 142.699 178.871 141.761 180.099 141.761C181.281 141.761 182.076 142.625 182.087 143.812H177.985Z" fill="white"/>
<path d="M73.1179 173H74.4588V164.273H73.1179V173ZM73.7997 162.818C74.3224 162.818 74.7543 162.409 74.7543 161.909C74.7543 161.409 74.3224 161 73.7997 161C73.277 161 72.8452 161.409 72.8452 161.909C72.8452 162.409 73.277 162.818 73.7997 162.818ZM78.2557 167.75C78.2557 166.227 79.1989 165.364 80.483 165.364C81.7273 165.364 82.483 166.176 82.483 167.545V173H83.8239V167.455C83.8239 165.227 82.6364 164.159 80.8693 164.159C79.5511 164.159 78.733 164.75 78.3239 165.636H78.2102V164.273H76.9148V173H78.2557V167.75ZM94.6605 164.273H92.706V163.386C92.706 162.523 93.0696 162.068 93.956 162.068C94.3423 162.068 94.5696 162.159 94.706 162.205L95.0923 161.045C94.8878 160.955 94.4787 160.818 93.8196 160.818C92.5696 160.818 91.3651 161.568 91.3651 163.068V164.273H89.956V165.409H91.3651V173H92.706V165.409H94.6605V164.273ZM102.04 169.432C102.04 171.068 100.79 171.818 99.7898 171.818C98.6761 171.818 97.8807 171 97.8807 169.727V164.273H96.5398V169.818C96.5398 172.045 97.7216 173.114 99.358 173.114C100.676 173.114 101.54 172.409 101.949 171.523H102.04V173H103.381V164.273H102.04V169.432ZM107.178 161.364H105.837V173H107.178V161.364ZM113.52 164.273H111.565V163.386C111.565 162.523 111.929 162.068 112.815 162.068C113.202 162.068 113.429 162.159 113.565 162.205L113.952 161.045C113.747 160.955 113.338 160.818 112.679 160.818C111.429 160.818 110.224 161.568 110.224 163.068V164.273H108.815V165.409H110.224V173H111.565V165.409H113.52V164.273ZM115.399 173H116.74V164.273H115.399V173ZM116.081 162.818C116.604 162.818 117.036 162.409 117.036 161.909C117.036 161.409 116.604 161 116.081 161C115.558 161 115.126 161.409 115.126 161.909C115.126 162.409 115.558 162.818 116.081 162.818ZM120.537 161.364H119.196V173H120.537V161.364ZM124.334 161.364H122.993V173H124.334V161.364ZM130.449 173.182C132.222 173.182 133.517 172.295 133.926 170.977L132.631 170.614C132.29 171.523 131.5 171.977 130.449 171.977C128.875 171.977 127.79 170.96 127.727 169.091H134.062V168.523C134.062 165.273 132.131 164.159 130.312 164.159C127.949 164.159 126.381 166.023 126.381 168.705C126.381 171.386 127.926 173.182 130.449 173.182ZM127.727 167.932C127.818 166.574 128.778 165.364 130.312 165.364C131.767 165.364 132.699 166.455 132.699 167.932H127.727ZM139.398 173.182C141.08 173.182 141.648 172.136 141.943 171.659H142.102V173H143.398V161.364H142.057V165.659H141.943C141.648 165.205 141.125 164.159 139.42 164.159C137.216 164.159 135.693 165.909 135.693 168.659C135.693 171.432 137.216 173.182 139.398 173.182ZM139.58 171.977C137.898 171.977 137.034 170.5 137.034 168.636C137.034 166.795 137.875 165.364 139.58 165.364C141.216 165.364 142.08 166.682 142.08 168.636C142.08 170.614 141.193 171.977 139.58 171.977ZM154.085 173.182C156.449 173.182 158.04 171.386 158.04 168.682C158.04 165.955 156.449 164.159 154.085 164.159C151.722 164.159 150.131 165.955 150.131 168.682C150.131 171.386 151.722 173.182 154.085 173.182ZM154.085 171.977C152.29 171.977 151.472 170.432 151.472 168.682C151.472 166.932 152.29 165.364 154.085 165.364C155.881 165.364 156.699 166.932 156.699 168.682C156.699 170.432 155.881 171.977 154.085 171.977ZM160.087 173H161.428V167.477C161.428 166.295 162.359 165.432 163.632 165.432C163.99 165.432 164.359 165.5 164.45 165.523V164.159C164.297 164.148 163.945 164.136 163.746 164.136C162.7 164.136 161.791 164.727 161.473 165.591H161.382V164.273H160.087V173ZM169.07 173.182C170.751 173.182 171.32 172.136 171.615 171.659H171.774V173H173.07V161.364H171.729V165.659H171.615C171.32 165.205 170.797 164.159 169.092 164.159C166.888 164.159 165.365 165.909 165.365 168.659C165.365 171.432 166.888 173.182 169.07 173.182ZM169.251 171.977C167.57 171.977 166.706 170.5 166.706 168.636C166.706 166.795 167.547 165.364 169.251 165.364C170.888 165.364 171.751 166.682 171.751 168.636C171.751 170.614 170.865 171.977 169.251 171.977ZM179.371 173.182C181.143 173.182 182.439 172.295 182.848 170.977L181.553 170.614C181.212 171.523 180.422 171.977 179.371 171.977C177.797 171.977 176.712 170.96 176.649 169.091H182.984V168.523C182.984 165.273 181.053 164.159 179.234 164.159C176.871 164.159 175.303 166.023 175.303 168.705C175.303 171.386 176.848 173.182 179.371 173.182ZM176.649 167.932C176.74 166.574 177.7 165.364 179.234 165.364C180.689 165.364 181.621 166.455 181.621 167.932H176.649ZM185.024 173H186.365V167.477C186.365 166.295 187.297 165.432 188.57 165.432C188.928 165.432 189.297 165.5 189.388 165.523V164.159C189.234 164.148 188.882 164.136 188.683 164.136C187.638 164.136 186.729 164.727 186.411 165.591H186.32V164.273H185.024V173ZM197.159 166.227C196.739 164.989 195.795 164.159 194.068 164.159C192.227 164.159 190.864 165.205 190.864 166.682C190.864 167.886 191.58 168.693 193.182 169.068L194.636 169.409C195.517 169.614 195.932 170.034 195.932 170.636C195.932 171.386 195.136 172 193.886 172C192.79 172 192.102 171.528 191.864 170.591L190.591 170.909C190.903 172.392 192.125 173.182 193.909 173.182C195.938 173.182 197.318 172.074 197.318 170.568C197.318 169.352 196.557 168.585 195 168.205L193.705 167.886C192.67 167.631 192.205 167.284 192.205 166.614C192.205 165.864 193 165.318 194.068 165.318C195.239 165.318 195.722 165.966 195.955 166.568L197.159 166.227Z" fill="white" fill-opacity="0.8"/>
</svg>
