<svg width="270" height="179" viewBox="0 0 270 179" fill="none" xmlns="http://www.w3.org/2000/svg">
<g clip-path="url(#clip0)">
<path d="M147.363 30.8984C147.12 30.6527 146.831 30.4578 146.512 30.325C146.193 30.1922 145.851 30.1242 145.505 30.125H138.302C137.83 30.1259 137.377 30.3131 137.041 30.6459L122.642 45.0424C122.151 45.5347 121.875 46.2019 121.875 46.8975C121.875 47.593 122.151 48.2602 122.642 48.7525L129.498 55.608C129.99 56.0996 130.657 56.3756 131.353 56.3756C132.049 56.3756 132.716 56.0996 133.209 55.608L147.602 41.2174C147.936 40.8826 148.124 40.4296 148.125 39.957V32.75C148.127 32.4063 148.061 32.0656 147.93 31.7477C147.799 31.4298 147.607 31.1412 147.363 30.8984ZM142.5 37.625C142.129 37.625 141.767 37.515 141.458 37.309C141.15 37.103 140.91 36.8101 140.768 36.4675C140.626 36.1249 140.589 35.7479 140.661 35.3842C140.733 35.0205 140.912 34.6864 141.174 34.4242C141.436 34.162 141.771 33.9834 142.134 33.911C142.498 33.8387 142.875 33.8758 143.218 34.0177C143.56 34.1596 143.853 34.4 144.059 34.7083C144.265 35.0167 144.375 35.3792 144.375 35.75C144.375 36.2473 144.178 36.7242 143.826 37.0758C143.474 37.4275 142.997 37.625 142.5 37.625Z" fill="white"/>
</g>
<path d="M88.8314 81H83.3158L75.3627 86.1094V91.4219L82.847 86.6406H83.0345V113H88.8314V81ZM107.465 113.609C115.183 113.625 119.793 107.531 119.793 97.0312C119.793 86.5937 115.152 80.5625 107.465 80.5625C99.777 80.5625 95.152 86.5781 95.1364 97.0312C95.1364 107.516 99.7458 113.609 107.465 113.609ZM107.465 108.719C103.48 108.719 100.98 104.719 100.996 97.0312C101.011 89.4062 103.496 85.3906 107.465 85.3906C111.449 85.3906 113.933 89.4062 113.949 97.0312C113.949 104.719 111.465 108.719 107.465 108.719ZM125.965 113.344C127.809 113.344 129.387 111.812 129.402 109.906C129.387 108.031 127.809 106.5 125.965 106.5C124.059 106.5 122.512 108.031 122.527 109.906C122.512 111.812 124.059 113.344 125.965 113.344ZM144.598 113.437C151.364 113.437 156.082 108.844 156.082 102.484C156.082 96.3281 151.801 91.8906 145.989 91.8906C143.395 91.8906 141.098 92.9219 139.91 94.3281H139.723L140.645 85.8438H154.41V81H135.848L134.176 97.5L139.41 98.3594C140.489 97.1719 142.52 96.375 144.442 96.3906C147.957 96.4062 150.489 99 150.473 102.625C150.489 106.203 148.02 108.75 144.598 108.75C141.707 108.75 139.379 106.922 139.176 104.297H133.551C133.707 109.609 138.348 113.437 144.598 113.437ZM160.309 81V113H165.872V90.9687H166.169L175.012 112.906H179.169L188.012 91.0156H188.309V113H193.872V81H186.778L177.278 104.187H176.903L167.403 81H160.309Z" fill="white"/>
<path d="M87.608 143.182C87.608 139.42 85.3125 137.205 82.2614 137.205C79.2045 137.205 76.9148 139.42 76.9148 143.182C76.9148 146.938 79.2045 149.159 82.2614 149.159C85.3125 149.159 87.608 146.943 87.608 143.182ZM85.4886 143.182C85.4886 145.83 84.1591 147.267 82.2614 147.267C80.3693 147.267 79.0341 145.83 79.0341 143.182C79.0341 140.534 80.3693 139.097 82.2614 139.097C84.1591 139.097 85.4886 140.534 85.4886 143.182ZM89.5099 149H91.5668V143.869C91.5668 142.761 92.402 141.977 93.5327 141.977C93.8793 141.977 94.3111 142.04 94.4872 142.097V140.205C94.2997 140.17 93.9759 140.148 93.7486 140.148C92.7486 140.148 91.9134 140.716 91.5952 141.727H91.5043V140.273H89.5099V149ZM98.733 149.153C100.233 149.153 100.909 148.261 101.233 147.625H101.358V149H103.381V137.364H101.318V141.716H101.233C100.92 141.085 100.278 140.159 98.7386 140.159C96.7216 140.159 95.1364 141.739 95.1364 144.648C95.1364 147.523 96.6761 149.153 98.733 149.153ZM99.3068 147.466C97.9489 147.466 97.233 146.273 97.233 144.636C97.233 143.011 97.9375 141.847 99.3068 141.847C100.631 141.847 101.358 142.943 101.358 144.636C101.358 146.33 100.619 147.466 99.3068 147.466ZM109.436 149.17C111.47 149.17 112.868 148.176 113.232 146.659L111.311 146.443C111.033 147.182 110.351 147.568 109.464 147.568C108.135 147.568 107.254 146.693 107.237 145.199H113.317V144.568C113.317 141.506 111.476 140.159 109.328 140.159C106.828 140.159 105.197 141.994 105.197 144.688C105.197 147.426 106.805 149.17 109.436 149.17ZM107.243 143.812C107.305 142.699 108.129 141.761 109.357 141.761C110.538 141.761 111.334 142.625 111.345 143.812H107.243ZM115.057 149H117.114V143.869C117.114 142.761 117.949 141.977 119.08 141.977C119.426 141.977 119.858 142.04 120.034 142.097V140.205C119.847 140.17 119.523 140.148 119.295 140.148C118.295 140.148 117.46 140.716 117.142 141.727H117.051V140.273H115.057V149ZM128.298 142.58C128.014 141.102 126.832 140.159 124.787 140.159C122.685 140.159 121.253 141.193 121.259 142.807C121.253 144.08 122.037 144.92 123.713 145.267L125.202 145.58C126.003 145.756 126.378 146.08 126.378 146.574C126.378 147.17 125.73 147.619 124.753 147.619C123.81 147.619 123.196 147.21 123.02 146.426L121.014 146.619C121.27 148.222 122.616 149.17 124.759 149.17C126.94 149.17 128.48 148.04 128.486 146.386C128.48 145.142 127.679 144.381 126.031 144.023L124.543 143.705C123.656 143.506 123.304 143.199 123.31 142.693C123.304 142.102 123.957 141.693 124.815 141.693C125.764 141.693 126.264 142.21 126.423 142.784L128.298 142.58ZM134.241 149H136.349V144.057H141.185V142.29H136.349V139.131H141.696V137.364H134.241V149ZM148.541 145.33C148.541 146.659 147.592 147.318 146.683 147.318C145.695 147.318 145.036 146.619 145.036 145.511V140.273H142.979V145.83C142.979 147.926 144.172 149.114 145.888 149.114C147.195 149.114 148.115 148.426 148.513 147.449H148.604V149H150.598V140.273H148.541V145.33ZM154.77 137.364H152.713V149H154.77V137.364ZM161.305 140.273H159.493V139.585C159.493 138.903 159.777 138.523 160.544 138.523C160.868 138.523 161.141 138.597 161.311 138.648L161.726 137.057C161.459 136.966 160.874 136.818 160.163 136.818C158.646 136.818 157.436 137.688 157.436 139.449V140.273H156.146V141.864H157.436V149H159.493V141.864H161.305V140.273ZM162.916 149H164.973V140.273H162.916V149ZM163.95 139.034C164.604 139.034 165.138 138.534 165.138 137.92C165.138 137.301 164.604 136.801 163.95 136.801C163.291 136.801 162.757 137.301 162.757 137.92C162.757 138.534 163.291 139.034 163.95 139.034ZM169.145 137.364H167.088V149H169.145V137.364ZM173.317 137.364H171.26V149H173.317V137.364ZM179.295 149.17C181.33 149.17 182.727 148.176 183.091 146.659L181.17 146.443C180.892 147.182 180.21 147.568 179.324 147.568C177.994 147.568 177.114 146.693 177.097 145.199H183.176V144.568C183.176 141.506 181.335 140.159 179.188 140.159C176.688 140.159 175.057 141.994 175.057 144.688C175.057 147.426 176.665 149.17 179.295 149.17ZM177.102 143.812C177.165 142.699 177.989 141.761 179.216 141.761C180.398 141.761 181.193 142.625 181.205 143.812H177.102ZM188.155 149.153C189.655 149.153 190.331 148.261 190.655 147.625H190.78V149H192.803V137.364H190.74V141.716H190.655C190.342 141.085 189.7 140.159 188.161 140.159C186.143 140.159 184.558 141.739 184.558 144.648C184.558 147.523 186.098 149.153 188.155 149.153ZM188.729 147.466C187.371 147.466 186.655 146.273 186.655 144.636C186.655 143.011 187.359 141.847 188.729 141.847C190.053 141.847 190.78 142.943 190.78 144.636C190.78 146.33 190.041 147.466 188.729 147.466Z" fill="white"/>
<path d="M99.5163 173H100.857V164.273H99.5163V173ZM100.198 162.818C100.721 162.818 101.153 162.409 101.153 161.909C101.153 161.409 100.721 161 100.198 161C99.6754 161 99.2436 161.409 99.2436 161.909C99.2436 162.409 99.6754 162.818 100.198 162.818ZM104.654 167.75C104.654 166.227 105.597 165.364 106.881 165.364C108.126 165.364 108.881 166.176 108.881 167.545V173H110.222V167.455C110.222 165.227 109.035 164.159 107.268 164.159C105.95 164.159 105.131 164.75 104.722 165.636H104.609V164.273H103.313V173H104.654V167.75ZM119.741 173.205C121.263 173.205 122.059 172.386 122.332 171.818H122.4V173H123.741V167.25C123.741 164.477 121.627 164.159 120.513 164.159C119.195 164.159 117.695 164.614 117.013 166.205L118.286 166.659C118.582 166.023 119.281 165.341 120.559 165.341C121.792 165.341 122.4 165.994 122.4 167.114V167.159C122.4 167.807 121.741 167.75 120.15 167.955C118.531 168.165 116.763 168.523 116.763 170.523C116.763 172.227 118.082 173.205 119.741 173.205ZM119.945 172C118.877 172 118.104 171.523 118.104 170.591C118.104 169.568 119.036 169.25 120.082 169.114C120.65 169.045 122.173 168.886 122.4 168.614V169.841C122.4 170.932 121.536 172 119.945 172ZM127.529 167.75C127.529 166.227 128.472 165.364 129.756 165.364C131.001 165.364 131.756 166.176 131.756 167.545V173H133.097V167.455C133.097 165.227 131.91 164.159 130.143 164.159C128.825 164.159 128.006 164.75 127.597 165.636H127.484V164.273H126.188V173H127.529V167.75ZM140.911 176.273C142.121 176.273 142.974 175.631 143.479 174.273L147.195 164.295L145.729 164.273L143.32 171.227H143.229L140.82 164.273H139.366L142.593 173.045L142.343 173.727C141.854 175.057 141.252 175.182 140.275 174.932L139.934 176.114C140.07 176.182 140.457 176.273 140.911 176.273ZM152.316 173.182C154.089 173.182 155.384 172.295 155.793 170.977L154.498 170.614C154.157 171.523 153.367 171.977 152.316 171.977C150.742 171.977 149.657 170.96 149.594 169.091H155.93V168.523C155.93 165.273 153.998 164.159 152.18 164.159C149.816 164.159 148.248 166.023 148.248 168.705C148.248 171.386 149.793 173.182 152.316 173.182ZM149.594 167.932C149.685 166.574 150.646 165.364 152.18 165.364C153.634 165.364 154.566 166.455 154.566 167.932H149.594ZM160.538 173.205C162.06 173.205 162.856 172.386 163.129 171.818H163.197V173H164.538V167.25C164.538 164.477 162.424 164.159 161.31 164.159C159.992 164.159 158.492 164.614 157.81 166.205L159.083 166.659C159.379 166.023 160.077 165.341 161.356 165.341C162.589 165.341 163.197 165.994 163.197 167.114V167.159C163.197 167.807 162.538 167.75 160.947 167.955C159.327 168.165 157.56 168.523 157.56 170.523C157.56 172.227 158.879 173.205 160.538 173.205ZM160.742 172C159.674 172 158.901 171.523 158.901 170.591C158.901 169.568 159.833 169.25 160.879 169.114C161.447 169.045 162.969 168.886 163.197 168.614V169.841C163.197 170.932 162.333 172 160.742 172ZM166.985 173H168.326V167.477C168.326 166.295 169.258 165.432 170.531 165.432C170.888 165.432 171.258 165.5 171.349 165.523V164.159C171.195 164.148 170.843 164.136 170.644 164.136C169.599 164.136 168.69 164.727 168.371 165.591H168.281V164.273H166.985V173Z" fill="white" fill-opacity="0.8"/>
<defs>
<clipPath id="clip0">
<rect width="30" height="30" fill="white" transform="translate(120 32)"/>
</clipPath>
</defs>
</svg>
