<svg width="270" height="179" viewBox="0 0 270 179" fill="none" xmlns="http://www.w3.org/2000/svg">
<path d="M145.57 36.4303C144.184 35.0311 142.536 33.9193 140.719 33.1591C138.903 32.3988 136.954 32.0049 134.985 32C133.016 31.9952 131.065 32.3795 129.245 33.1308C127.424 33.8822 125.771 34.9857 124.378 36.3782C122.986 37.7706 121.882 39.4244 121.131 41.2446C120.379 43.0648 119.995 45.0156 120 46.9848C120.005 48.9539 120.399 50.9028 121.159 52.7193C121.919 54.5358 123.031 56.1841 124.43 57.5697C125.816 58.9689 127.464 60.0807 129.281 60.8409C131.097 61.6012 133.046 61.9951 135.015 62C136.984 62.0048 138.935 61.6205 140.755 60.8692C142.576 60.1178 144.229 59.0143 145.622 57.6218C147.014 56.2294 148.118 54.5756 148.869 52.7554C149.621 50.9352 150.005 48.9844 150 47.0152C149.995 45.0461 149.601 43.0972 148.841 41.2807C148.081 39.4642 146.969 37.8159 145.57 36.4303ZM130.195 43.7969C130.512 43.7969 130.822 43.8908 131.085 44.0668C131.348 44.2428 131.554 44.4929 131.675 44.7855C131.796 45.0782 131.828 45.4002 131.766 45.7109C131.704 46.0216 131.552 46.3069 131.328 46.5309C131.104 46.7549 130.818 46.9074 130.508 46.9692C130.197 47.031 129.875 46.9993 129.582 46.8781C129.29 46.7569 129.04 46.5516 128.864 46.2882C128.688 46.0248 128.594 45.7152 128.594 45.3984C128.593 45.188 128.634 44.9795 128.715 44.7849C128.795 44.5904 128.913 44.4136 129.062 44.2648C129.21 44.116 129.387 43.998 129.582 43.9177C129.776 43.8374 129.985 43.7963 130.195 43.7969ZM141.384 50.8818C140.583 53.5711 138.034 55.5417 135.003 55.5417C131.972 55.5417 129.423 53.5711 128.616 50.8818C128.593 50.8017 128.59 50.7175 128.605 50.6358C128.621 50.5541 128.656 50.4772 128.707 50.4112C128.757 50.3453 128.823 50.2922 128.898 50.256C128.973 50.2199 129.055 50.2018 129.138 50.2031H140.862C140.946 50.2019 141.028 50.2201 141.103 50.2563C141.178 50.2924 141.243 50.3456 141.294 50.4115C141.344 50.4774 141.379 50.5543 141.395 50.6359C141.41 50.7176 141.407 50.8018 141.384 50.8818ZM139.805 47C139.488 47 139.178 46.9061 138.915 46.7301C138.652 46.5541 138.446 46.304 138.325 46.0113C138.204 45.7187 138.172 45.3967 138.234 45.086C138.296 44.7753 138.448 44.4899 138.672 44.266C138.896 44.042 139.182 43.8894 139.492 43.8276C139.803 43.7658 140.125 43.7976 140.418 43.9188C140.71 44.04 140.96 44.2453 141.136 44.5086C141.312 44.772 141.406 45.0817 141.406 45.3984C141.407 45.6089 141.366 45.8174 141.285 46.0119C141.205 46.2065 141.087 46.3833 140.938 46.5321C140.79 46.6809 140.613 46.7989 140.418 46.8792C140.224 46.9595 140.015 47.0005 139.805 47Z" fill="white"/>
<path d="M74.0813 113.437C80.925 113.437 85.9094 109.516 85.8938 104.109C85.9094 100.109 83.4094 97.2344 78.925 96.5937V96.3437C82.3938 95.5937 84.7219 93.0156 84.7063 89.4219C84.7219 84.5469 80.5656 80.5625 74.175 80.5625C67.9563 80.5625 63.1438 84.2656 63.0188 89.625H68.5969C68.6906 86.9375 71.1906 85.2656 74.1438 85.2656C77.1281 85.2656 79.1125 87.0781 79.0969 89.7656C79.1125 92.5625 76.8 94.4219 73.4875 94.4219H70.6594V98.8906H73.4875C77.5344 98.8906 79.9406 100.922 79.925 103.812C79.9406 106.641 77.4875 108.578 74.0656 108.578C70.8469 108.578 68.3625 106.906 68.2219 104.297H62.3469C62.5031 109.703 67.3313 113.437 74.0813 113.437ZM95.6948 108.625H90.6948L90.5855 110.375C90.3198 114.609 89.2105 118.922 88.7573 120.813H92.5698C93.3198 118.844 95.0542 114.281 95.4917 110.344L95.6948 108.625ZM111.23 113.609C118.949 113.625 123.558 107.531 123.558 97.0312C123.558 86.5937 118.918 80.5625 111.23 80.5625C103.543 80.5625 98.9178 86.5781 98.9022 97.0312C98.9022 107.516 103.512 113.609 111.23 113.609ZM111.23 108.719C107.246 108.719 104.746 104.719 104.762 97.0312C104.777 89.4062 107.262 85.3906 111.23 85.3906C115.215 85.3906 117.699 89.4062 117.715 97.0312C117.715 104.719 115.23 108.719 111.23 108.719ZM139.258 113.609C146.977 113.625 151.586 107.531 151.586 97.0312C151.586 86.5937 146.945 80.5625 139.258 80.5625C131.57 80.5625 126.945 86.5781 126.93 97.0312C126.93 107.516 131.539 113.609 139.258 113.609ZM139.258 108.719C135.274 108.719 132.774 104.719 132.789 97.0312C132.805 89.4062 135.289 85.3906 139.258 85.3906C143.242 85.3906 145.727 89.4062 145.742 97.0312C145.742 104.719 143.258 108.719 139.258 108.719ZM167.286 113.609C175.004 113.625 179.614 107.531 179.614 97.0312C179.614 86.5937 174.973 80.5625 167.286 80.5625C159.598 80.5625 154.973 86.5781 154.958 97.0312C154.958 107.516 159.567 113.609 167.286 113.609ZM167.286 108.719C163.301 108.719 160.801 104.719 160.817 97.0312C160.833 89.4062 163.317 85.3906 167.286 85.3906C171.27 85.3906 173.754 89.4062 173.77 97.0312C173.77 104.719 171.286 108.719 167.286 108.719ZM192.985 111.109H197.891V102.75H206.251V97.8437H197.891V89.4844H192.985V97.8437H184.626V102.75H192.985V111.109Z" fill="white"/>
<path d="M81.9055 149H84.0135V144.057H89.4055V149H91.5192V137.364H89.4055V142.29H84.0135V137.364H81.9055V149ZM96.2322 149.176C97.6016 149.176 98.4197 148.534 98.7947 147.801H98.8629V149H100.84V143.159C100.84 140.852 98.9595 140.159 97.2947 140.159C95.4595 140.159 94.0504 140.977 93.5959 142.568L95.5163 142.841C95.7209 142.244 96.3004 141.733 97.3061 141.733C98.2607 141.733 98.7834 142.222 98.7834 143.08V143.114C98.7834 143.705 98.1641 143.733 96.6243 143.898C94.9311 144.08 93.3118 144.585 93.3118 146.551C93.3118 148.267 94.5675 149.176 96.2322 149.176ZM96.7663 147.665C95.9084 147.665 95.2947 147.273 95.2947 146.517C95.2947 145.727 95.9822 145.398 96.9027 145.267C97.4425 145.193 98.522 145.057 98.7891 144.841V145.869C98.7891 146.841 98.005 147.665 96.7663 147.665ZM102.908 152.273H104.965V147.625H105.05C105.374 148.261 106.05 149.153 107.55 149.153C109.607 149.153 111.147 147.523 111.147 144.648C111.147 141.739 109.562 140.159 107.545 140.159C106.005 140.159 105.363 141.085 105.05 141.716H104.931V140.273H102.908V152.273ZM104.925 144.636C104.925 142.943 105.653 141.847 106.977 141.847C108.346 141.847 109.05 143.011 109.05 144.636C109.05 146.273 108.335 147.466 106.977 147.466C105.664 147.466 104.925 146.33 104.925 144.636ZM112.908 152.273H114.965V147.625H115.05C115.374 148.261 116.05 149.153 117.55 149.153C119.607 149.153 121.147 147.523 121.147 144.648C121.147 141.739 119.562 140.159 117.545 140.159C116.005 140.159 115.363 141.085 115.05 141.716H114.931V140.273H112.908V152.273ZM114.925 144.636C114.925 142.943 115.653 141.847 116.977 141.847C118.346 141.847 119.05 143.011 119.05 144.636C119.05 146.273 118.335 147.466 116.977 147.466C115.664 147.466 114.925 146.33 114.925 144.636ZM123.89 152.273C125.492 152.273 126.418 151.449 126.913 150.057L130.418 140.284L128.219 140.273L126.202 146.864H126.112L124.1 140.273H121.918L125.083 149.182L124.907 149.653C124.526 150.648 123.924 150.716 123.026 150.455L122.549 152.057C122.827 152.17 123.327 152.273 123.89 152.273ZM135.906 149H140.616C143.281 149 144.587 147.642 144.587 145.83C144.587 144.068 143.337 143.034 142.099 142.972V142.858C143.235 142.591 144.133 141.795 144.133 140.381C144.133 138.648 142.883 137.364 140.36 137.364H135.906V149ZM138.013 147.239V143.83H140.337C141.638 143.83 142.445 144.625 142.445 145.665C142.445 146.591 141.809 147.239 140.281 147.239H138.013ZM138.013 142.312V139.102H140.144C141.383 139.102 142.025 139.756 142.025 140.653C142.025 141.676 141.195 142.312 140.099 142.312H138.013ZM146.33 149H148.387V143.869C148.387 142.761 149.222 141.977 150.353 141.977C150.7 141.977 151.131 142.04 151.308 142.097V140.205C151.12 140.17 150.796 140.148 150.569 140.148C149.569 140.148 148.734 140.716 148.415 141.727H148.325V140.273H146.33V149ZM155.013 149.176C156.383 149.176 157.201 148.534 157.576 147.801H157.644V149H159.621V143.159C159.621 140.852 157.741 140.159 156.076 140.159C154.241 140.159 152.832 140.977 152.377 142.568L154.298 142.841C154.502 142.244 155.082 141.733 156.087 141.733C157.042 141.733 157.565 142.222 157.565 143.08V143.114C157.565 143.705 156.945 143.733 155.406 143.898C153.712 144.08 152.093 144.585 152.093 146.551C152.093 148.267 153.349 149.176 155.013 149.176ZM155.548 147.665C154.69 147.665 154.076 147.273 154.076 146.517C154.076 145.727 154.763 145.398 155.684 145.267C156.224 145.193 157.303 145.057 157.57 144.841V145.869C157.57 146.841 156.786 147.665 155.548 147.665ZM163.746 143.886C163.746 142.625 164.508 141.898 165.593 141.898C166.656 141.898 167.292 142.597 167.292 143.761V149H169.349V143.443C169.354 141.352 168.161 140.159 166.36 140.159C165.053 140.159 164.156 140.784 163.758 141.756H163.656V140.273H161.69V149H163.746V143.886ZM174.678 149.153C176.178 149.153 176.854 148.261 177.178 147.625H177.303V149H179.326V137.364H177.263V141.716H177.178C176.866 141.085 176.224 140.159 174.684 140.159C172.667 140.159 171.082 141.739 171.082 144.648C171.082 147.523 172.621 149.153 174.678 149.153ZM175.252 147.466C173.894 147.466 173.178 146.273 173.178 144.636C173.178 143.011 173.883 141.847 175.252 141.847C176.576 141.847 177.303 142.943 177.303 144.636C177.303 146.33 176.565 147.466 175.252 147.466ZM188.415 142.58C188.131 141.102 186.95 140.159 184.904 140.159C182.802 140.159 181.37 141.193 181.376 142.807C181.37 144.08 182.154 144.92 183.83 145.267L185.319 145.58C186.12 145.756 186.495 146.08 186.495 146.574C186.495 147.17 185.847 147.619 184.87 147.619C183.927 147.619 183.313 147.21 183.137 146.426L181.131 146.619C181.387 148.222 182.734 149.17 184.876 149.17C187.058 149.17 188.597 148.04 188.603 146.386C188.597 145.142 187.796 144.381 186.148 144.023L184.66 143.705C183.773 143.506 183.421 143.199 183.427 142.693C183.421 142.102 184.075 141.693 184.933 141.693C185.881 141.693 186.381 142.21 186.54 142.784L188.415 142.58Z" fill="white"/>
<path d="M70.9616 169.432C70.9616 171.068 69.7116 171.818 68.7116 171.818C67.598 171.818 66.8026 171 66.8026 169.727V164.273H65.4616V169.818C65.4616 172.045 66.6435 173.114 68.2798 173.114C69.598 173.114 70.4616 172.409 70.8707 171.523H70.9616V173H72.3026V164.273H70.9616V169.432ZM80.9403 166.227C80.5199 164.989 79.5767 164.159 77.8494 164.159C76.0085 164.159 74.6449 165.205 74.6449 166.682C74.6449 167.886 75.3608 168.693 76.9631 169.068L78.4176 169.409C79.2983 169.614 79.7131 170.034 79.7131 170.636C79.7131 171.386 78.9176 172 77.6676 172C76.571 172 75.8835 171.528 75.6449 170.591L74.3722 170.909C74.6847 172.392 75.9062 173.182 77.6903 173.182C79.7188 173.182 81.0994 172.074 81.0994 170.568C81.0994 169.352 80.3381 168.585 78.7812 168.205L77.4858 167.886C76.4517 167.631 75.9858 167.284 75.9858 166.614C75.9858 165.864 76.7812 165.318 77.8494 165.318C79.0199 165.318 79.5028 165.966 79.7358 166.568L80.9403 166.227ZM83.1179 173H84.4588V164.273H83.1179V173ZM83.7997 162.818C84.3224 162.818 84.7543 162.409 84.7543 161.909C84.7543 161.409 84.3224 161 83.7997 161C83.277 161 82.8452 161.409 82.8452 161.909C82.8452 162.409 83.277 162.818 83.7997 162.818ZM88.2557 167.75C88.2557 166.227 89.1989 165.364 90.483 165.364C91.7273 165.364 92.483 166.176 92.483 167.545V173H93.8239V167.455C93.8239 165.227 92.6364 164.159 90.8693 164.159C89.5511 164.159 88.733 164.75 88.3239 165.636H88.2102V164.273H86.9148V173H88.2557V167.75ZM99.7969 176.455C101.888 176.455 103.57 175.5 103.57 173.25V164.273H102.274V165.659H102.138C101.842 165.205 101.297 164.159 99.5923 164.159C97.3878 164.159 95.8651 165.909 95.8651 168.591C95.8651 171.318 97.456 172.864 99.5696 172.864C101.274 172.864 101.82 171.864 102.115 171.386H102.229V173.159C102.229 174.614 101.206 175.273 99.7969 175.273C98.2116 175.273 97.6548 174.438 97.2969 173.955L96.2287 174.705C96.7741 175.619 97.848 176.455 99.7969 176.455ZM99.7514 171.659C98.0696 171.659 97.206 170.386 97.206 168.568C97.206 166.795 98.0469 165.364 99.7514 165.364C101.388 165.364 102.251 166.682 102.251 168.568C102.251 170.5 101.365 171.659 99.7514 171.659ZM114.07 173.182C116.433 173.182 118.024 171.386 118.024 168.682C118.024 165.955 116.433 164.159 114.07 164.159C111.706 164.159 110.115 165.955 110.115 168.682C110.115 171.386 111.706 173.182 114.07 173.182ZM114.07 171.977C112.274 171.977 111.456 170.432 111.456 168.682C111.456 166.932 112.274 165.364 114.07 165.364C115.865 165.364 116.683 166.932 116.683 168.682C116.683 170.432 115.865 171.977 114.07 171.977ZM125.571 169.432C125.571 171.068 124.321 171.818 123.321 171.818C122.207 171.818 121.412 171 121.412 169.727V164.273H120.071V169.818C120.071 172.045 121.253 173.114 122.889 173.114C124.207 173.114 125.071 172.409 125.48 171.523H125.571V173H126.912V164.273H125.571V169.432ZM129.368 173H130.709V167.477C130.709 166.295 131.641 165.432 132.913 165.432C133.271 165.432 133.641 165.5 133.732 165.523V164.159C133.578 164.148 133.226 164.136 133.027 164.136C131.982 164.136 131.072 164.727 130.754 165.591H130.663V164.273H129.368V173ZM139.821 176.273H141.162V171.659H141.276C141.571 172.136 142.139 173.182 143.821 173.182C146.003 173.182 147.526 171.432 147.526 168.659C147.526 165.909 146.003 164.159 143.798 164.159C142.094 164.159 141.571 165.205 141.276 165.659H141.116V164.273H139.821V176.273ZM141.139 168.636C141.139 166.682 142.003 165.364 143.639 165.364C145.344 165.364 146.185 166.795 146.185 168.636C146.185 170.5 145.321 171.977 143.639 171.977C142.026 171.977 141.139 170.614 141.139 168.636ZM149.571 173H150.912V167.477C150.912 166.295 151.844 165.432 153.116 165.432C153.474 165.432 153.844 165.5 153.935 165.523V164.159C153.781 164.148 153.429 164.136 153.23 164.136C152.185 164.136 151.276 164.727 150.957 165.591H150.866V164.273H149.571V173ZM158.804 173.182C161.168 173.182 162.759 171.386 162.759 168.682C162.759 165.955 161.168 164.159 158.804 164.159C156.44 164.159 154.849 165.955 154.849 168.682C154.849 171.386 156.44 173.182 158.804 173.182ZM158.804 171.977C157.009 171.977 156.19 170.432 156.19 168.682C156.19 166.932 157.009 165.364 158.804 165.364C160.599 165.364 161.418 166.932 161.418 168.682C161.418 170.432 160.599 171.977 158.804 171.977ZM168.101 173.182C169.783 173.182 170.351 172.136 170.646 171.659H170.805V173H172.101V161.364H170.76V165.659H170.646C170.351 165.205 169.828 164.159 168.124 164.159C165.919 164.159 164.396 165.909 164.396 168.659C164.396 171.432 165.919 173.182 168.101 173.182ZM168.283 171.977C166.601 171.977 165.737 170.5 165.737 168.636C165.737 166.795 166.578 165.364 168.283 165.364C169.919 165.364 170.783 166.682 170.783 168.636C170.783 170.614 169.896 171.977 168.283 171.977ZM180.243 169.432C180.243 171.068 178.993 171.818 177.993 171.818C176.879 171.818 176.084 171 176.084 169.727V164.273H174.743V169.818C174.743 172.045 175.925 173.114 177.561 173.114C178.879 173.114 179.743 172.409 180.152 171.523H180.243V173H181.584V164.273H180.243V169.432ZM187.585 173.182C189.517 173.182 190.79 172 191.017 170.455H189.676C189.426 171.409 188.631 171.977 187.585 171.977C185.994 171.977 184.972 170.659 184.972 168.636C184.972 166.659 186.017 165.364 187.585 165.364C188.767 165.364 189.472 166.091 189.676 166.886H191.017C190.79 165.25 189.403 164.159 187.562 164.159C185.199 164.159 183.631 166.023 183.631 168.682C183.631 171.295 185.131 173.182 187.585 173.182ZM196.773 164.273H194.909V162.182H193.568V164.273H192.25V165.409H193.568V170.864C193.568 172.386 194.795 173.114 195.932 173.114C196.432 173.114 196.75 173.023 196.932 172.955L196.659 171.75C196.545 171.773 196.364 171.818 196.068 171.818C195.477 171.818 194.909 171.636 194.909 170.5V165.409H196.773V164.273ZM204.815 166.227C204.395 164.989 203.452 164.159 201.724 164.159C199.884 164.159 198.52 165.205 198.52 166.682C198.52 167.886 199.236 168.693 200.838 169.068L202.293 169.409C203.173 169.614 203.588 170.034 203.588 170.636C203.588 171.386 202.793 172 201.543 172C200.446 172 199.759 171.528 199.52 170.591L198.247 170.909C198.56 172.392 199.781 173.182 201.565 173.182C203.594 173.182 204.974 172.074 204.974 170.568C204.974 169.352 204.213 168.585 202.656 168.205L201.361 167.886C200.327 167.631 199.861 167.284 199.861 166.614C199.861 165.864 200.656 165.318 201.724 165.318C202.895 165.318 203.378 165.966 203.611 166.568L204.815 166.227Z" fill="white" fill-opacity="0.8"/>
</svg>
