<svg width="252" height="61" viewBox="0 0 252 61" fill="none" xmlns="http://www.w3.org/2000/svg">
<g clip-path="url(#clip0)">
<path d="M108.995 47.0465C110.23 47.0465 111.4 47.0465 112.57 47.0465C112.57 47.6948 112.57 48.3432 112.57 49.0563C112.635 49.0563 112.635 49.1212 112.7 49.1212C113.22 48.2135 113.871 47.5003 114.911 47.3059C115.821 47.1114 116.861 47.1114 117.901 46.9817C117.836 47.1762 117.836 47.3059 117.836 47.4355C117.446 48.408 117.121 49.3805 116.731 50.353C116.666 50.6123 116.536 50.742 116.211 50.6771C116.016 50.6771 115.821 50.6771 115.561 50.6771C113.741 50.6771 112.765 51.5848 112.765 53.4001C112.7 55.6044 112.765 57.8087 112.7 60.013C112.7 60.2075 112.7 60.402 112.7 60.5965C111.465 60.5965 110.23 60.5965 108.995 60.5965C108.995 56.0582 108.995 51.5848 108.995 47.0465Z" fill="white"/>
<path d="M122.516 60.5958C121.281 60.5958 120.111 60.5958 118.876 60.5958C118.876 58.9102 118.876 57.2893 118.876 55.6685C118.876 54.0477 118.876 52.3621 118.876 50.6764C118.421 50.6764 118.031 50.6764 117.511 50.6764C117.836 49.7039 118.226 48.7963 118.551 47.9535C118.876 47.0458 118.876 47.1106 119.851 47.1106C120.761 47.1106 121.671 47.1106 122.581 47.1106C122.516 51.5841 122.516 56.0575 122.516 60.5958Z" fill="white"/>
<path d="M58.291 55.1499C54.8457 55.1499 51.4004 55.1499 47.9551 55.1499C47.9551 56.0576 48.8652 57.0301 50.0353 57.4191C51.5304 57.8729 53.4156 57.8081 54.7807 55.7334C55.7558 56.3169 56.6659 56.8356 57.641 57.4191C56.2758 60.142 52.6355 61.6332 49.0602 60.531C45.6149 59.4289 43.5998 55.7334 44.5098 52.1676C45.4199 48.537 49.0602 46.2679 52.7005 46.9162C56.2758 47.5645 58.8111 50.6117 58.291 55.1499ZM48.0851 52.1676C50.2953 52.1676 52.3755 52.1676 54.5207 52.1676C54.3257 51.0655 53.1556 50.1578 51.8555 50.093C50.1003 49.8985 48.6702 50.6765 48.0851 52.1676Z" fill="white"/>
<path d="M71.8121 60.5963C70.512 60.5963 69.3419 60.5963 68.0418 60.5963C68.0418 60.4018 68.0418 60.2073 68.0418 60.0777C68.0418 57.6789 68.0418 55.2801 68.0418 52.8813C68.0418 52.5571 68.0418 52.2978 67.9768 51.9736C67.7818 50.8066 67.0017 50.0286 65.9616 49.9638C64.5965 49.8341 63.6214 50.4176 63.2314 51.6495C63.0364 52.1681 62.9714 52.8164 62.9714 53.3351C62.9714 55.5394 62.9714 57.7437 62.9714 59.948C62.9714 60.1425 62.9714 60.337 62.9714 60.5315C61.7363 60.5315 60.5662 60.5315 59.3311 60.5315C59.3311 56.0581 59.3311 51.5846 59.3311 47.0463C60.5012 47.0463 61.7363 47.0463 62.9714 47.0463C62.9714 47.5002 62.9714 47.8892 62.9714 48.4727C63.2314 48.2782 63.3614 48.0837 63.5564 47.954C65.1165 46.5925 66.9367 46.398 68.8219 47.0463C70.642 47.6947 71.5521 49.121 71.8121 50.9363C71.8771 51.455 71.9421 51.9736 71.9421 52.4923C71.9421 54.9559 71.9421 57.4196 71.9421 59.8832C71.8121 60.1425 71.8121 60.337 71.8121 60.5963Z" fill="#F8F3FF"/>
<path d="M137.793 60.5958C136.558 60.5958 135.388 60.5958 134.153 60.5958C134.153 60.142 134.153 59.6882 134.153 59.1695C134.023 59.2343 133.958 59.2992 133.893 59.2992C131.682 61.5683 127.977 61.2441 125.637 59.1047C123.817 57.419 123.297 55.2147 123.492 52.8807C123.687 50.8709 124.532 49.2501 126.157 48.0183C128.367 46.3975 131.877 46.2678 133.893 48.2128C133.893 48.2128 133.958 48.2128 134.023 48.2776C134.023 45.814 134.023 43.3504 134.023 40.8867C135.258 40.8867 136.493 40.8867 137.728 40.8867C137.793 47.4348 137.793 53.9829 137.793 60.5958ZM134.218 53.7884C134.218 51.7786 132.722 50.1578 130.707 50.1578C128.627 50.1578 127.067 51.7138 127.067 53.7884C127.067 55.7982 128.692 57.4839 130.707 57.4839C132.722 57.4839 134.218 55.863 134.218 53.7884Z" fill="white"/>
<path d="M83.383 60.5319C83.383 60.078 83.383 59.6242 83.383 59.2352C83.318 59.2352 83.253 59.2352 83.253 59.2352C81.1728 61.4395 77.7275 61.3747 75.3873 59.5594C73.1771 57.8737 72.5271 55.5397 72.7871 52.9464C72.9821 50.6773 74.0222 48.862 75.9724 47.695C78.1826 46.3984 81.2378 46.3984 83.383 48.3433C83.383 45.8149 83.383 43.3512 83.383 40.8228C84.6831 40.8228 85.8532 40.8228 87.0883 40.8228C87.0883 47.3708 87.0883 53.9838 87.0883 60.5319C85.8532 60.5319 84.6831 60.5319 83.383 60.5319ZM83.513 53.7893C83.513 51.7146 82.0179 50.1586 80.0027 50.1586C77.9225 50.1586 76.3624 51.7795 76.3624 53.7893C76.3624 55.8639 77.9875 57.4199 80.0027 57.4199C81.9529 57.4847 83.513 55.8639 83.513 53.7893Z" fill="white"/>
<path d="M107.175 45.6196C106.07 46.2679 104.965 46.9162 103.925 47.5645C103.405 46.981 103.015 46.3327 102.495 45.8141C99.5046 42.9614 93.5241 43.8042 92.0289 48.926C90.7288 53.3346 94.1091 57.4839 98.6595 57.2246C101.065 57.0949 102.755 55.9928 103.73 53.7885C103.795 53.594 103.86 53.3995 103.99 53.0753C103.795 53.0753 103.6 53.0753 103.405 53.0753C101.65 53.0753 99.9596 53.0753 98.2045 53.0753C97.8144 53.0753 97.6844 52.9456 97.6844 52.5566C97.6844 51.5841 97.6844 50.5468 97.6844 49.5095C101.13 49.5095 104.575 49.5095 107.955 49.5095C108.475 54.9554 105.55 59.6234 100.48 60.6607C94.8242 61.8277 89.1037 58.5861 88.1286 52.3621C87.2835 46.981 90.5338 41.9241 95.9293 40.8219C100.025 39.9791 104.445 41.4054 106.85 45.1009C106.915 45.2306 107.045 45.4251 107.175 45.6196Z" fill="white"/>
<path d="M120.761 44.9714C119.526 44.9714 118.551 43.9989 118.486 42.7671C118.486 41.5352 119.461 40.5627 120.761 40.5627C121.996 40.5627 122.971 41.5352 122.971 42.7671C122.971 43.934 121.931 44.9714 120.761 44.9714Z" fill="white"/>
<path d="M28.8435 57.2897C29.9486 56.3821 31.1187 55.5392 32.2238 54.6316C32.6788 55.1502 33.1339 55.7337 33.6539 56.1227C34.759 57.0304 35.9941 57.4194 37.4242 57.1601C38.5943 56.9007 39.4394 56.0579 39.5694 54.8261C39.6344 53.9833 39.2444 53.3998 38.5943 53.0108C37.7493 52.6218 36.8392 52.2976 35.9941 51.9735C35.149 51.6493 34.239 51.39 33.3939 51.0658C31.1187 50.223 29.8186 48.7318 29.8186 46.2682C29.8186 43.8694 31.0537 42.1837 33.1989 41.2112C36.0591 39.9146 40.4145 40.3036 43.0797 43.4156C42.0396 44.1935 41.0645 44.9715 40.0244 45.7495C39.8944 45.6199 39.8294 45.555 39.7644 45.4254C38.6593 44.0639 36.7742 43.5452 35.214 44.1287C34.369 44.4529 33.8489 45.0364 33.7839 45.944C33.7189 46.7868 34.174 47.3703 34.889 47.6945C35.9941 48.2132 37.1642 48.6022 38.3343 48.9912C39.5694 49.445 40.8695 49.8988 41.8446 50.8065C43.5998 52.3624 44.0548 54.9558 42.9497 57.2249C41.9746 59.2995 40.2195 60.4665 37.9443 60.7907C34.434 61.2445 31.4437 60.2072 29.0385 57.5491C28.9735 57.4842 28.9085 57.4194 28.8435 57.2897Z" fill="white"/>
<path opacity="0.62" d="M24.6183 36.3499H8.17188V52.7525H24.6183V36.3499Z" fill="white"/>
<path opacity="0.62" d="M16.4925 44.5835H0.371094V60.4026H16.4925V44.5835Z" fill="white"/>
</g>
<path d="M1.2947 19H3.40265V15.5341L4.69243 14.0114L8.16402 19H10.6981L6.15834 12.5852L10.6583 7.36364H8.08447L3.5447 12.7102H3.40265V7.36364H1.2947V19ZM15.2549 19.1705C17.289 19.1705 18.6867 18.1761 19.0504 16.6591L17.1299 16.4432C16.8515 17.1818 16.1697 17.5682 15.2833 17.5682C13.9538 17.5682 13.0731 16.6932 13.0561 15.1989H19.1356V14.5682C19.1356 11.5057 17.2947 10.1591 15.147 10.1591C12.647 10.1591 11.0163 11.9943 11.0163 14.6875C11.0163 17.4261 12.6242 19.1705 15.2549 19.1705ZM13.0617 13.8125C13.1242 12.6989 13.9481 11.7614 15.1754 11.7614C16.3572 11.7614 17.1527 12.625 17.164 13.8125H13.0617ZM28.4211 10.2727H26.2336L24.2223 16.7557H24.1313L22.1257 10.2727H19.9325L23.0404 19H25.3132L28.4211 10.2727ZM29.8444 19H31.9012V10.2727H29.8444V19ZM30.8785 9.03409C31.5319 9.03409 32.066 8.53409 32.066 7.92045C32.066 7.30114 31.5319 6.80114 30.8785 6.80114C30.2194 6.80114 29.6853 7.30114 29.6853 7.92045C29.6853 8.53409 30.2194 9.03409 30.8785 9.03409ZM36.0731 13.8864C36.0731 12.625 36.8345 11.8977 37.9197 11.8977C38.9822 11.8977 39.6186 12.5966 39.6186 13.7614V19H41.6754V13.4432C41.6811 11.3523 40.4879 10.1591 38.6867 10.1591C37.3799 10.1591 36.4822 10.7841 36.0845 11.7557H35.9822V10.2727H34.0163V19H36.0731V13.8864ZM47.8259 19H49.9339V15.0682H52.1612C54.8487 15.0682 56.2919 13.4545 56.2919 11.2159C56.2919 8.99432 54.8657 7.36364 52.1896 7.36364H47.8259V19ZM49.9339 13.3352V9.125H51.8657C53.4453 9.125 54.1441 9.97727 54.1441 11.2159C54.1441 12.4545 53.4453 13.3352 51.8771 13.3352H49.9339ZM58.0319 19H60.0887V10.2727H58.0319V19ZM59.066 9.03409C59.7194 9.03409 60.2535 8.53409 60.2535 7.92045C60.2535 7.30114 59.7194 6.80114 59.066 6.80114C58.4069 6.80114 57.8728 7.30114 57.8728 7.92045C57.8728 8.53409 58.4069 9.03409 59.066 9.03409ZM66.0674 19.1705C68.1015 19.1705 69.4992 18.1761 69.8629 16.6591L67.9424 16.4432C67.664 17.1818 66.9822 17.5682 66.0958 17.5682C64.7663 17.5682 63.8856 16.6932 63.8686 15.1989H69.9481V14.5682C69.9481 11.5057 68.1072 10.1591 65.9595 10.1591C63.4595 10.1591 61.8288 11.9943 61.8288 14.6875C61.8288 17.4261 63.4367 19.1705 66.0674 19.1705ZM63.8742 13.8125C63.9367 12.6989 64.7606 11.7614 65.9879 11.7614C67.1697 11.7614 67.9652 12.625 67.9765 13.8125H63.8742ZM76.0461 10.2727H74.3245V8.18182H72.2677V10.2727H71.0291V11.8636H72.2677V16.7159C72.2563 18.358 73.4495 19.1648 74.995 19.1193C75.5802 19.1023 75.9836 18.9886 76.2052 18.9148L75.8586 17.3068C75.745 17.3352 75.512 17.3864 75.2563 17.3864C74.7393 17.3864 74.3245 17.2045 74.3245 16.375V11.8636H76.0461V10.2727ZM81.5362 19.1705C83.5703 19.1705 84.968 18.1761 85.3316 16.6591L83.4112 16.4432C83.1328 17.1818 82.451 17.5682 81.5646 17.5682C80.235 17.5682 79.3544 16.6932 79.3373 15.1989H85.4169V14.5682C85.4169 11.5057 83.576 10.1591 81.4282 10.1591C78.9282 10.1591 77.2975 11.9943 77.2975 14.6875C77.2975 17.4261 78.9055 19.1705 81.5362 19.1705ZM79.343 13.8125C79.4055 12.6989 80.2294 11.7614 81.4566 11.7614C82.6385 11.7614 83.4339 12.625 83.4453 13.8125H79.343ZM87.1569 19H89.2137V13.8693C89.2137 12.7614 90.049 11.9773 91.1796 11.9773C91.5262 11.9773 91.9581 12.0398 92.1342 12.0966V10.2045C91.9467 10.1705 91.6228 10.1477 91.3956 10.1477C90.3956 10.1477 89.5603 10.7159 89.2421 11.7273H89.1512V10.2727H87.1569V19ZM100.398 12.5795C100.114 11.1023 98.9325 10.1591 96.887 10.1591C94.7848 10.1591 93.3529 11.1932 93.3586 12.8068C93.3529 14.0795 94.137 14.9205 95.8132 15.267L97.3018 15.5795C98.1029 15.7557 98.4779 16.0795 98.4779 16.5739C98.4779 17.1705 97.8302 17.6193 96.8529 17.6193C95.9098 17.6193 95.2961 17.2102 95.12 16.4261L93.1143 16.6193C93.37 18.2216 94.7166 19.1705 96.8586 19.1705C99.0404 19.1705 100.58 18.0398 100.586 16.3864C100.58 15.142 99.7791 14.3807 98.1313 14.0227L96.6427 13.7045C95.7563 13.5057 95.4041 13.1989 95.4098 12.6932C95.4041 12.1023 96.0575 11.6932 96.9154 11.6932C97.8643 11.6932 98.3643 12.2102 98.5234 12.7841L100.398 12.5795ZM106.146 19.1705C108.18 19.1705 109.577 18.1761 109.941 16.6591L108.021 16.4432C107.742 17.1818 107.06 17.5682 106.174 17.5682C104.844 17.5682 103.964 16.6932 103.947 15.1989H110.026V14.5682C110.026 11.5057 108.185 10.1591 106.038 10.1591C103.538 10.1591 101.907 11.9943 101.907 14.6875C101.907 17.4261 103.515 19.1705 106.146 19.1705ZM103.952 13.8125C104.015 12.6989 104.839 11.7614 106.066 11.7614C107.248 11.7614 108.043 12.625 108.055 13.8125H103.952ZM113.823 13.8864C113.823 12.625 114.584 11.8977 115.67 11.8977C116.732 11.8977 117.369 12.5966 117.369 13.7614V19H119.425V13.4432C119.431 11.3523 118.238 10.1591 116.437 10.1591C115.13 10.1591 114.232 10.7841 113.834 11.7557H113.732V10.2727H111.766V19H113.823V13.8864ZM123.931 17.4091H122.113L122.073 18.0455C121.977 19.5852 121.573 21.1534 121.408 21.8409H122.795C123.067 21.125 123.698 19.4659 123.857 18.0341L123.931 17.4091ZM131.565 7.36364H130.087L134.36 19H135.815L140.087 7.36364H138.61L135.155 17.1591H135.019L131.565 7.36364ZM141.9 19H143.309V14.75H145.854C148.565 14.75 149.786 13.1023 149.786 11.0455C149.786 8.98864 148.565 7.36364 145.832 7.36364H141.9V19ZM143.309 13.5V8.61364H145.786C147.678 8.61364 148.4 9.64773 148.4 11.0455C148.4 12.4432 147.678 13.5 145.809 13.5H143.309ZM159.92 19.1818C162.283 19.1818 163.874 17.3864 163.874 14.6818C163.874 11.9545 162.283 10.1591 159.92 10.1591C157.556 10.1591 155.965 11.9545 155.965 14.6818C155.965 17.3864 157.556 19.1818 159.92 19.1818ZM159.92 17.9773C158.124 17.9773 157.306 16.4318 157.306 14.6818C157.306 12.9318 158.124 11.3636 159.92 11.3636C161.715 11.3636 162.533 12.9318 162.533 14.6818C162.533 16.4318 161.715 17.9773 159.92 17.9773ZM169.807 10.2727H167.853V9.38636C167.853 8.52273 168.217 8.06818 169.103 8.06818C169.489 8.06818 169.717 8.15909 169.853 8.20455L170.239 7.04545C170.035 6.95455 169.626 6.81818 168.967 6.81818C167.717 6.81818 166.512 7.56818 166.512 9.06818V10.2727H165.103V11.4091H166.512V19H167.853V11.4091H169.807V10.2727ZM176.369 7.36364V19H177.687V10.1591H177.8L181.437 19H182.709L186.346 10.1591H186.459V19H187.778V7.36364H186.096L182.141 17.0227H182.005L178.05 7.36364H176.369ZM192.989 19.2045C194.512 19.2045 195.307 18.3864 195.58 17.8182H195.648V19H196.989V13.25C196.989 10.4773 194.876 10.1591 193.762 10.1591C192.444 10.1591 190.944 10.6136 190.262 12.2045L191.535 12.6591C191.83 12.0227 192.529 11.3409 193.807 11.3409C195.04 11.3409 195.648 11.9943 195.648 13.1136V13.1591C195.648 13.8068 194.989 13.75 193.398 13.9545C191.779 14.1648 190.012 14.5227 190.012 16.5227C190.012 18.2273 191.33 19.2045 192.989 19.2045ZM193.194 18C192.126 18 191.353 17.5227 191.353 16.5909C191.353 15.5682 192.285 15.25 193.33 15.1136C193.898 15.0455 195.421 14.8864 195.648 14.6136V15.8409C195.648 16.9318 194.785 18 193.194 18ZM199.437 19H200.778V13.4773C200.778 12.2955 201.709 11.4318 202.982 11.4318C203.34 11.4318 203.709 11.5 203.8 11.5227V10.1591C203.647 10.1477 203.295 10.1364 203.096 10.1364C202.05 10.1364 201.141 10.7273 200.823 11.5909H200.732V10.2727H199.437V19ZM205.39 19H206.731V15.733L207.668 14.8636L210.935 19H212.64L208.68 14L212.367 10.2727H210.708L206.89 14.1591H206.731V7.36364H205.39V19ZM217.393 19.1818C219.165 19.1818 220.461 18.2955 220.87 16.9773L219.575 16.6136C219.234 17.5227 218.444 17.9773 217.393 17.9773C215.819 17.9773 214.734 16.9602 214.671 15.0909H221.006V14.5227C221.006 11.2727 219.075 10.1591 217.256 10.1591C214.893 10.1591 213.325 12.0227 213.325 14.7045C213.325 17.3864 214.87 19.1818 217.393 19.1818ZM214.671 13.9318C214.762 12.5739 215.722 11.3636 217.256 11.3636C218.711 11.3636 219.643 12.4545 219.643 13.9318H214.671ZM226.842 10.2727H224.978V8.18182H223.637V10.2727H222.319V11.4091H223.637V16.8636C223.637 18.3864 224.864 19.1136 226.001 19.1136C226.501 19.1136 226.819 19.0227 227.001 18.9545L226.728 17.75C226.614 17.7727 226.432 17.8182 226.137 17.8182C225.546 17.8182 224.978 17.6364 224.978 16.5V11.4091H226.842V10.2727ZM228.859 19H230.2V10.2727H228.859V19ZM229.54 8.81818C230.063 8.81818 230.495 8.40909 230.495 7.90909C230.495 7.40909 230.063 7 229.54 7C229.018 7 228.586 7.40909 228.586 7.90909C228.586 8.40909 229.018 8.81818 229.54 8.81818ZM233.996 13.75C233.996 12.2273 234.94 11.3636 236.224 11.3636C237.468 11.3636 238.224 12.1761 238.224 13.5455V19H239.565V13.4545C239.565 11.2273 238.377 10.1591 236.61 10.1591C235.292 10.1591 234.474 10.75 234.065 11.6364H233.951V10.2727H232.655V19H233.996V13.75ZM245.538 22.4545C247.629 22.4545 249.31 21.5 249.31 19.25V10.2727H248.015V11.6591H247.879C247.583 11.2045 247.038 10.1591 245.333 10.1591C243.129 10.1591 241.606 11.9091 241.606 14.5909C241.606 17.3182 243.197 18.8636 245.31 18.8636C247.015 18.8636 247.56 17.8636 247.856 17.3864H247.969V19.1591C247.969 20.6136 246.947 21.2727 245.538 21.2727C243.952 21.2727 243.396 20.4375 243.038 19.9545L241.969 20.7045C242.515 21.6193 243.589 22.4545 245.538 22.4545ZM245.492 17.6591C243.81 17.6591 242.947 16.3864 242.947 14.5682C242.947 12.7955 243.788 11.3636 245.492 11.3636C247.129 11.3636 247.992 12.6818 247.992 14.5682C247.992 16.5 247.106 17.6591 245.492 17.6591Z" fill="#F8F3FF"/>
<defs>
<clipPath id="clip0">
<rect width="138" height="25" fill="white" transform="translate(0.146973 36)"/>
</clipPath>
</defs>
</svg>
